<svg xmlns="http://www.w3.org/2000/svg" width="230" height="131" viewBox="0 0 230 131"><g><g><g><path fill="#e6e4eb" d="M41.73 121.567c0-.255.255-.51.51-.51h6.895c.255 0 .51.255.51.51v.288c0 .255-.255.51-.51.51H42.24c-.255 0-.51-.255-.51-.51z"/></g><g><path fill="#e6e4eb" d="M45.54 123.635c0-.255.256-.51.51-.51h3.085c.255 0 .51.255.51.51v.29c0 .254-.255.51-.51.51H46.05c-.255 0-.51-.256-.51-.51z"/></g><g><path fill="#0f1630" d="M146.434 81.294a10.573 10.573 0 0 1 4.33 3.122c1.079 1.312 14.287 26.617 15.136 28.266.85 1.65.85 5.813-1.153 8.375a916.47 916.47 0 0 1-5.453 6.817h-7.915c2.873-4.311 6.629-9.95 6.896-10.406.44-.741.66-1.456-.141-2.71-.8-1.253-11.381-14.146-11.381-14.146s-5.197-14.536-.319-19.318z"/><path fill="none" stroke="#0e1632" stroke-miterlimit="20" stroke-width=".22" d="M146.434 81.294a10.573 10.573 0 0 1 4.33 3.122c1.079 1.312 14.287 26.617 15.136 28.266.85 1.65.85 5.813-1.153 8.375a916.47 916.47 0 0 1-5.453 6.817h-7.915c2.873-4.311 6.629-9.95 6.896-10.406.44-.741.66-1.456-.141-2.71-.8-1.253-11.381-14.146-11.381-14.146v0s-5.197-14.536-.319-19.318z"/></g><g><path fill="#cec9d0" d="M132.54 79.259s13.32 1.894 13.894 2.035c.575.141 1.546 1.483 2.069 2.388.522.904 1.141 13.905 1.438 17.545.297 3.64-.875 19.511-.526 23.774.059.708.167 1.706.307 2.873h-39.844c-.511-4.711-4.078-19.462-4.356-23.006-.296-3.64-1.809-16.571-1.438-17.546.37-.975 1.112-2.458 1.657-2.691.545-.234 13.531-4.286 13.531-4.286l6.673.742z"/></g><g><path fill="#fff" d="M132.54 79.259l2.202.315c-.07.337-.227.649-.456.905-5.19 5.931-10.465 6.365-16.538 1.353-.27-.215-.478-.5-.6-.823l2.124-.664 6.673.742z"/></g><g><path fill="#e8685b" d="M130.208 66.429l.115 3.318s.556 6.765.638 7.784c.04.497.615 1.172 1.579 1.72-4.356 4.994-8.156 5.305-13.268 1.087.86-.697 1.316-1.457 1.275-1.954-.081-1.027-.637-7.785-.637-7.785l-.427-3.292s2.673.211 5.446.586c2.677-.823 5.279-1.464 5.279-1.464z"/></g><g><path fill="#0f1630" d="M133.64 79.415s-1.541 6.672-1.653 8.01c-.11 1.339-1.924 14.992-1.734 17.298.085 1.05 2.168 11.704 4.448 23.151h18.146a845.59 845.59 0 0 1-1.03-6.554c-.741-4.882-1.235-15.032-1.071-21.301.163-6.269-1.398-15.678-1.583-16.571-.186-.893-1.965-2.01-2.518-2.224z"/></g><g><path fill="#3d4155" d="M131.654 90.277c-.549 4.493-1.546 12.704-1.402 14.457 0 0 8.827-9.609 8.694-10.558-.134-.949-3.726-8.018-3.726-8.018s-1.531 1.765-3.566 4.119z"/></g><g><path fill="#545a6c" d="M133.196 79.352s.393-.349.53-.371c.137-.022 2.536.8 2.536.8s3.496 5.49 3.551 6.192c.056.7-8.578 7.785-8.578 7.785l.764-6.462s1.253-6.302 1.642-7.878z"/></g><g><path fill="#0f1630" d="M105.886 84.616a10.547 10.547 0 0 0-3.763 3.785c-.853 1.483-9.765 28.59-10.336 30.354-.57 1.764.112 5.872 2.506 8.078l1.146 1.041h9.88c-2.618-2.806-4.987-5.353-5.224-5.635-.556-.663-.89-1.334-.304-2.702.586-1.368 8.923-15.811 8.923-15.811s2.773-15.184-2.828-19.11z"/></g><g><path fill="#0f1630" d="M118.212 80.683s2.595 6.302 2.936 7.632c.34 1.331 4.337 14.477 4.526 16.783.086 1.027-.219 11.418-.582 22.776H107.14c0-1.186-.019-2.18-.026-2.891-.067-4.938-1.235-15.033-2.414-21.194s-1.171-15.692-1.134-16.604c.037-.912 1.609-2.302 2.12-2.595z"/></g><g><path fill="#3d4155" d="M121.941 91.062c1.268 4.345 3.592 12.282 3.733 14.025 0 0-10.272-8.045-10.295-9.001-.022-.957 2.37-8.527 2.37-8.527s1.812 1.52 4.192 3.503z"/></g><g><path fill="#545a6c" d="M118.638 80.545a1.854 1.854 0 0 0-.582-.267c-.14 0-2.373 1.198-2.373 1.198s-2.55 5.99-2.494 6.691c.055.7 9.75 6.265 9.75 6.265l-1.81-6.25s-2.268-6.017-2.917-7.5z"/></g><g><path fill="#e8685b" d="M113.745 68.449l-.197.052a2.743 2.743 0 1 0 2.328.34c.145.802.108 1.81-.912 2.003l-.115-1.576a.941.941 0 0 0-1.104-.819z"/></g><g><path fill="#e8685b" d="M133.44 66.655c.067-.004.134-.004.2 0a2.743 2.743 0 1 1-2.223.741c0 .812.222 1.798 1.26 1.802l-.174-1.568a.942.942 0 0 1 .938-.975z"/></g><g><path fill="#f4ad85" d="M122.349 53.92a9.405 9.405 0 0 0-8.49 10.195l.775 8.497a9.412 9.412 0 0 0 10.195 8.493 9.405 9.405 0 0 0 8.49-10.195l-.775-8.496a9.409 9.409 0 0 0-10.195-8.493z"/></g><g><path fill="#ed9072" d="M114.438 59.923a9.268 9.268 0 0 0-.578 4.181l.774 8.497a9.409 9.409 0 0 0 9.302 8.526c-5.431-.419-6.436-6.836-6.851-10.216-.415-3.381.849-4.138 1.353-4.304.504-.167 8.393-1.483 10.135-1.68 1.743-.196 2.625.768 2.625.768l.741-1.068-.704-2.284s.6.019 1.312 0a9.51 9.51 0 0 0-.345-1.768 14.878 14.878 0 0 1-3.084-1.39c-2.08-1.342-12.015.334-13.624.334a2.558 2.558 0 0 0-1.056.404z"/></g><g><path fill="#0e1632" d="M131.961 66.918s.06.626.112 1.205c.052.578.652 1.179 1.093 1.138l-.118-1.316c.1-.64.65-1.111 1.297-1.112 3.292-4.564 2.195-11.23-2.046-14.35-4.241-3.122-12.697-2.57-14.12-1.936-1.424.634-2.718 3.259-2.718 3.259s-1.35-1.001-2.458-.315c-1.108.686-4.319 8.356-4.152 10.183.167 1.828 4.037 5.146 4.037 5.146a1.316 1.316 0 0 1 1.483.845l.119 1.316c.445-.04.923-.741.87-1.316l-.107-1.205.123-.07c1.13-.742.908-2.988.908-2.988l-1.045-1.46 2.072-2.726 2.384-.782 5.416.208s6.387.793 5.831 2.65c-.556 1.858 1.02 3.626 1.02 3.626z"/></g><g><path fill="#010518" d="M109.088 62.069zm-.237 1.605c.126 1.413 4.82 8.219 5.861 9.765.541-.048.616-4.078.534-4.994l.122-.07c1.131-.742.909-2.988.909-2.988l-1.046-1.46 2.072-2.725 2.277-.742c-1.146-.46-1.483-.945-1.483-.945-4.697 4.749-7.426 4.485-9.008 2.554-.16.52-.24 1.061-.238 1.605zm23.11 3.244c.067.715.545 3.915 1.38 3.837 2.483-5.235 4.778-10.695 1.078-16.06-.437 3.452-3.874 5.561-7.318 6.28 1.824.397 4.182 1.142 3.834 2.303-.56 1.853 1.026 3.64 1.026 3.64z"/></g><g><path fill="#0e1632" d="M112.962 67.066s-3.93-8.526 3.978-9.976c0 0 2.091-4.133 6.284-3.095 4.193 1.038 6.817 1.005 8.697-.845 0 0 1.079 2.027-.23 3.803 3.967 3.077 2.595 7.025.967 9.157-.652-4.415-12.285.5-13.805-3.744-.152 4.055-4.404 3.047-5.89 4.7z"/></g><g><path fill="#010518" d="M112.962 67.066a12.358 12.358 0 0 1-.945-3.707c1.527-.145 3.51-1.246 6.087-3.848 0 0 1.05 1.546 5.906 1.742 2.965.123 6.698-.967 8.812-3.243 2.528 2.88 1.279 6.21-.164 8.103-.652-4.415-12.285.5-13.805-3.744-.152 4.052-4.404 3.044-5.89 4.697z"/></g><g><path fill="#05304b" d="M227.216 67.986c-1.664-6.232-7.47-2.807-9.957 2.528-2.488 5.334-8.178 26.15-13.105 31.536-1.905 2.091-1.323 2.265.43 1.25 8.753-5.072 24.92-26.736 22.632-35.314z"/></g><g><path fill="#0076bd" d="M202.979 103.667c-.06.281.204.293.704.089 13.264-11.222 20.312-36.304 20.334-36.386a.26.26 0 0 0-.5-.14c-.023.107-7.159 25.512-20.538 36.437z"/></g><g><path fill="#0076bd" d="M212.514 71.307c-2.9-4.545-6.673-.345-7.288 4.53-.616 4.875.089 22.896-2.47 28.434-.993 2.146-.481 2.139.657.882 5.69-6.25 13.093-27.592 9.1-33.846z"/></g><g><path fill="#05304b" d="M202.23 105.861c.022.238.237.182.582-.11 7.73-12.29 7.003-34.047 7.003-34.106a.219.219 0 0 0-.377-.142.215.215 0 0 0-.057.156c0 .06.738 22.113-7.15 34.202z"/></g><g><path fill="#0076bd" d="M226.886 86.77c5.009.522 3.074 5.42-.741 7.988-3.815 2.57-19.173 9.498-22.732 13.954-1.376 1.728-1.583 1.298-1.012-.178 2.836-7.37 17.59-22.484 24.485-21.764z"/></g><g><path fill="#05304b" d="M202.312 109.817c-.212.081-.252-.123-.156-.53 7.044-11.604 25.527-20.093 25.58-20.123a.204.204 0 1 1 .17.371c-.056.045-18.792 8.634-25.594 20.282z"/></g><g><path fill="#0e1632" d="M155.335 80.512l-1.257 10.921s1.88 25.602 2.803 36.434h13.96l.309-43.57z"/></g><g><path fill="#0e1632" d="M162.738 89.991l-.612 3.863 1.22 34.02h17.023c.282-2.354.538-4.367.742-5.82 1.279-8.945 1.716-21.383 1.709-24.326-.008-2.944-3.415-7.31-4.586-7.63-1.172-.318-15.496-.107-15.496-.107z"/></g><g><path fill="#171c3a" d="M157.044 37.465s-.582-1.079-1.042-.879c-.46.2-15.866 22.88-16.382 24.82-.515 1.938-.304 5.408 2.677 10.209 2.98 4.8 9.357 16.593 9.583 16.853.226.259 3.707-2.11 4.078-2.77 0 0 .152-.218-.07-.66-.223-.44-7.812-18.41-8.294-19.7-.481-1.29 13.046-17.278 13.69-18.576.646-1.297 3.13-7.992-4.24-9.297z"/></g><g><path fill="#c9c4d1" d="M169.396 30.97l-6.71 4.797s-4.786 18.743-4.82 19.596c-.032.852-1.853 11.188-1.853 11.188s6.71 2.662 7.67.107c.96-2.554 11.719-20.878 12.234-23.755.515-2.877-.742-9.694-1.387-10.44-.645-.744-5.134-1.493-5.134-1.493z"/></g><g><path fill="#171c3a" d="M162.642 34.128s-6.076 2.14-6.636 2.458c-.56.319-3.84 12.282-4.108 13.401-.267 1.12 1.483 21.624 1.483 23.437 0 1.813-2.29 24.448-2.343 24.82a.671.671 0 0 0 .694.8c.53 0 6.498-11.24 6.976-12.519.479-1.279-1.07-20.556-1.07-20.556l4.055-27.592z"/></g><g><path fill="#1c2344" d="M180.684 37.16s8.712 8.78 9.03 9.313c.32.534-8.733 30.52-8.837 31.904-.104 1.382 4.475 21.786 4.634 22.317.005.186-.042.37-.134.533-.183.27-.43.489-.719.638-.189.133-21.501-3.3-23.195-4.367-1.694-1.068-5.38-17.627-5.38-19.866 0-2.24 1.287-10.8 1.287-10.8l10.484-17.75s7.574-11.358 12.83-11.921z"/></g><g><path fill="#101937" d="M179.305 35.782s10.091 10.157 10.41 10.691c.319.534-8.734 30.52-8.838 31.904-.104 1.382 4.475 21.786 4.634 22.317.005.186-.042.37-.133.533-.183.27-.43.489-.72.638-.096.07-5.764-.804-11.492-1.813 4.971-7.136 4.712-18.999 4.267-19.722-.504-.841-3.155-2.654-2.75-2.787.404-.134 3.117-.2 3.336-.872.219-.67 4.026-21.905 4.026-21.905l2.55-1.724s1.142-8.256.338-9.464c-.805-1.209-6.12-5.776-6.162-5.813.657-.326-.077-1.92.534-1.983z"/></g><g><path fill="#383d5d" d="M188.499 45.135a15.4 15.4 0 0 1 2.224 2.224c.912 1.19 12.278 24.953 12.512 27.177.233 2.224-.593 5.998-4.671 10.74-4.078 4.741-13.13 16.537-13.424 16.786-.293.248-3.707-2.966-3.996-3.741 0 0-.13-.263.193-.708.322-.445 11.733-18.821 12.482-20.148.748-1.327-11.292-21.187-11.778-22.699-.486-1.513-1.839-9.472 6.458-9.631z"/></g><g><path fill="#ed9072" d="M175.772 22.629c.063 3.318-.797 6.75-.582 10.076.045.678.371.904 1.209 1.446 1.157 1.727-2.013 7.18-4.096 7.507-.138.018-3.537-2.644-5.932-3.263-1.234-.315-2.25 1.26-2.343 1.194-.5-.37.575-3.184.226-4.256.423-.115.801-1.06 1.112-1.334 1.947-1.798 1.313-6.284-.285-7.978-1.212-1.268 10.691-3.392 10.691-3.392z"/></g><g><path fill="#fff" d="M177.97 35.456c-.266.74-6.705 9.345-6.705 9.345s-.23.308-.568-.085c-.337-.393-4.304-5.931-4.304-5.931l8.816-6.562-.2-1.509c.126-.137 3.232 3.97 2.962 4.742z"/></g><g><path fill="#fff" d="M166.163 32.66h-.033c-3.014-.21-3.47 8.323-2.94 10.01 0 0 1.832-2.796 3.088-3.908.571-.534-1.212-4.389-.115-6.102z"/></g><g><path fill="#383d5d" d="M177.21 33.001s-11.269 13.965-12.062 15.137c-.794 1.171-6.925 15.607-7.785 18.695 0 0 9.427-11.77 10.75-12.834 1.324-1.064 6.262-5.168 6.262-5.168a.708.708 0 0 0 .067-.452c-.067-.19-1.439-3.289-1.439-3.289s4.1.612 4.475.586c.374-.026 2.224-9.179 2.265-9.446.04-.267-2.532-3.229-2.532-3.229z"/></g><g><path fill="#383d5d" d="M166.186 32.642s-2.966.69-3.459.956c-.493.267-4.26 6.55-4.367 7.085a.337.337 0 0 0 .16.37c.373.203.733.43 1.078.679.082.078-1.316.237-1.316.237a.274.274 0 0 0-.133.308c.026.244-.504 23.703-.504 23.703s4.648-25.95 5.334-27.644c.686-1.694 2.54-4.408 2.54-4.408z"/></g><g><path fill="#e8685b" d="M161.122 17.795a2.658 2.658 0 1 1 .037 5.316 2.658 2.658 0 0 1-.037-5.316z"/></g><g><path fill="#e8685b" d="M178.85 17.695a2.658 2.658 0 1 1 .029 5.316 2.658 2.658 0 0 1-.03-5.316z"/></g><g><path fill="#f4ad85" d="M169.066 4.141c5.005-.03 9.123 4.408 9.15 9.869l.047 9.016c.026 5.46-4.044 9.95-9.049 9.98-5.004.029-9.123-4.412-9.149-9.87l-.055-9.015c0-5.46 4.051-9.95 9.056-9.98z"/></g><g><path fill="#ed9072" d="M177.863 11.33c.238.873.362 1.774.37 2.68l.05 9.016c.025 5.019-3.415 9.22-7.86 9.886l-.778.078c4.967-.49 6.02-7.017 6.02-8.986v-5.112c0-4.82-2.673-5.334-4.5-5.334h-9.098a1.768 1.768 0 0 0-1.594 1.078l-.452-.344v-.171a10.35 10.35 0 0 1 2.936-7.34c4.556.89 12.133 2.406 12.656 2.732.278.178 1.205.938 2.25 1.817z"/></g><g><path fill="#01020e" d="M158.779 11.407l1.635 1.643s.782-3.051 7.373-2.11c6.591.942-6.076-6.124-7.51-5.353-1.435.771-2.688 3.04-1.498 5.82z"/></g><g><path fill="#0e1632" d="M175.898 11.556s-6.483.711-9.786-1.383c-3.304-2.095-6.102-3.07-6.94-1.932-.805 1.083 2.424 3.997 1.112 8.96-.074.268-.241 4.857-.341 5.139-.03-1.798-.608-6.384-1.201-7.533-1.776-3.426-4.553-6.002-.945-11.122C160.02.531 163.769-.948 165.518.65c5.69 5.19 13.528-1.557 13.576 7.044 0 0 4.222 1.423.3 10.061a1.112 1.112 0 0 0-1.16 1.246l.033 4.611c-3.154-.018-3.217-8.315-2.369-12.055z"/></g><g><path fill="#e2e1e7" d="M171.49 94.011c0-2.175 2.176-4.35 4.35-4.35h12.88c2.175 0 4.35 2.175 4.35 4.35v26.08c0 2.175-2.175 4.35-4.35 4.35h-12.88c-2.174 0-4.35-2.175-4.35-4.35z"/></g><g><path fill="#fff" d="M190.504 93.321c0-1.83 1.83-3.66 3.66-3.66h10.241c1.83 0 3.66 1.83 3.66 3.66v27.46c0 1.83-1.83 3.66-3.66 3.66h-10.24c-1.83 0-3.66-1.83-3.66-3.66z"/></g><g><path fill="#fff" d="M167.82 102.873h19.014c0-3.406 3.67-3.785 3.67-3.785h-19.002s-3.681.379-3.681 3.785z"/></g><g><path fill="#b92f6d" d="M170.43 121.717c0-1.435 1.435-2.87 2.87-2.87h16.062c1.435 0 2.87 1.435 2.87 2.87v3.287c0 1.435-1.435 2.87-2.87 2.87H173.3c-1.435 0-2.87-1.435-2.87-2.87z"/></g><g><path fill="#e74d91" d="M190.549 118.866h4.308c.096 0 1.149.04 1.742 1.327.62 1.35.552 2.699 2.387 2.699h.79c1.854 0 1.787-1.38 2.391-2.699.604-1.32 1.642-1.327 1.743-1.327h4.1c.586.002 1.06.478 1.06 1.064v6.903a1.064 1.064 0 0 1-1.06 1.06h-17.461a1.064 1.064 0 0 1-1.06-1.06v-6.922a1.064 1.064 0 0 1 1.06-1.045z"/></g><g><path fill="#fff" d="M167.82 114.788h19.014c0-3.407 3.67-3.781 3.67-3.781h-19.002s-3.681.374-3.681 3.781z"/></g><g><path fill="#acabbb" d="M211.168 109.109h-17.301c0-3.407-3.363-3.785-3.363-3.785h17.294s3.37.378 3.37 3.785z"/></g><g><path fill="#e2e1e7" d="M193.259 93.442h13.253c.32.004.578.266.578.586a.586.586 0 0 1-.586.582H193.26a.586.586 0 0 1-.586-.582c0-.323.262-.586.586-.586z"/></g><g><path fill="#e2e1e7" d="M193.259 99.882h13.253c.322 0 .584.26.586.582a.586.586 0 0 1-.586.585h-13.253a.586.586 0 0 1-.586-.585.586.586 0 0 1 .586-.582z"/></g><g><path fill="#e2e1e7" d="M193.259 113.324h13.253a.586.586 0 1 1 0 1.171h-13.253a.586.586 0 0 1 0-1.171z"/></g><g><path fill="#acabbb" d="M174.3 92.968h12.805c.324 0 .586.262.586.586a.582.582 0 0 1-.586.582h-12.804a.582.582 0 0 1-.582-.582c0-.322.26-.584.582-.586z"/></g><g><path fill="#acabbb" d="M173.715 108.054c0-.292.292-.584.584-.584h12.804c.292 0 .584.292.584.584s-.292.584-.584.584H174.3c-.292 0-.584-.292-.584-.584z"/></g><g><path fill="#acabbb" d="M174.3 116.75h12.805c.322 0 .584.26.586.581a.586.586 0 0 1-.586.586h-12.804a.586.586 0 0 1-.582-.586.586.586 0 0 1 .582-.582z"/></g><g><path fill="#e2e1e7" d="M162.723 107.38c0-1.316 1.315-2.63 2.63-2.63h7.8c1.315 0 2.63 1.314 2.63 2.63v15.788c0 1.315-1.315 2.63-2.63 2.63h-7.8c-1.315 0-2.63-1.315-2.63-2.63z"/></g><g><path fill="#fff" d="M175.05 104.757h8.986a.82.82 0 0 1 .819.819v19.407a.823.823 0 0 1-.823.823h-8.983a.823.823 0 0 1-.823-.823v-19.41a.823.823 0 0 1 .823-.816z"/></g><g><path fill="#fff" d="M160.503 112.745h11.492c0-2.064 2.224-2.29 2.224-2.29h-11.492s-2.224.226-2.224 2.29z"/></g><g><path fill="#b92f6d" d="M162.082 124.14c0-.865.865-1.73 1.73-1.73h9.734c.865 0 1.73.865 1.73 1.73v2.004c0 .865-.865 1.73-1.73 1.73h-9.734c-.865 0-1.73-.865-1.73-1.73z"/></g><g><path fill="#e74d91" d="M174.256 122.414h2.617c.478.037.89.35 1.053.8.37.82.334 1.635 1.446 1.635h.478c1.112 0 1.083-.838 1.446-1.635.158-.454.573-.77 1.053-.8h2.498c.355 0 .642.287.642.641v4.178a.645.645 0 0 1-.642.641h-10.59a.645.645 0 0 1-.642-.641v-4.178c0-.354.287-.641.641-.641z"/></g><g><path fill="#fff" d="M160.503 119.956h11.492c0-2.061 2.224-2.291 2.224-2.291h-11.492s-2.224.23-2.224 2.29z"/></g><g><path fill="#acabbb" d="M186.73 116.52h-10.465c0-2.066-2.035-2.292-2.035-2.292h10.465s2.036.226 2.036 2.291z"/></g><g><path fill="#e2e1e7" d="M175.895 107.037h8.022a.37.37 0 0 1 .37.37.37.37 0 0 1-.37.352h-8.022a.37.37 0 0 1-.371-.352.37.37 0 0 1 .37-.37z"/></g><g><path fill="#e2e1e7" d="M175.895 110.933h8.022a.37.37 0 0 1 .37.37.37.37 0 0 1-.37.353h-8.022a.37.37 0 0 1-.371-.353.37.37 0 0 1 .37-.37z"/></g><g><path fill="#e2e1e7" d="M175.895 119.07h8.022a.37.37 0 0 1 .37.352.37.37 0 0 1-.37.37h-8.022a.37.37 0 0 1-.371-.37.37.37 0 0 1 .37-.352z"/></g><g><path fill="#acabbb" d="M164.069 107.101a.38.38 0 0 1 .354-.354h7.748a.38.38 0 0 1 .354.354.38.38 0 0 1-.354.354h-7.748a.38.38 0 0 1-.354-.354z"/></g><g><path fill="#acabbb" d="M164.069 115.88a.38.38 0 0 1 .354-.354h7.748a.38.38 0 0 1 .354.354.38.38 0 0 1-.354.354h-7.748a.38.38 0 0 1-.354-.354z"/></g><g><path fill="#acabbb" d="M164.425 121.142h7.748a.37.37 0 0 1 .37.352.37.37 0 0 1-.37.371h-7.748a.37.37 0 0 1-.352-.37.37.37 0 0 1 .352-.353z"/></g><g><path fill="#0e1632" d="M53.986 77.81l-14.458-.071v-.864l14.458.07zm-15.2-1.29v1.59c0 .204.166.37.371.37l15.2.075a.37.37 0 0 0 .37-.371v-1.59a.37.37 0 0 0-.37-.371l-15.2-.074a.37.37 0 0 0-.37.37z"/></g><g><path fill="#0e1632" d="M40.232 77.298L20.64 99.622l-.649-.57 19.593-22.325zm-21.038 21.55a.37.37 0 0 0 .034.511l1.197 1.05a.37.37 0 0 0 .512-.038l20.07-22.87a.37.37 0 0 0-.037-.51l-1.194-1.05a.37.37 0 0 0-.511.033l-20.07 22.873z"/></g><g><path fill="#383d5d" d="M39.357 75.33a2.024 2.024 0 1 1 .51 4.015 2.024 2.024 0 0 1-.51-4.016z"/></g><g><path fill="#0e1632" d="M33.767 125.257l-13.776-26.32.768-.401 13.775 26.32zM19.183 98.955l14.11 26.955a.37.37 0 0 0 .489.155l1.409-.741a.37.37 0 0 0 .155-.49l-14.113-26.95a.37.37 0 0 0-.49-.156l-1.408.741a.37.37 0 0 0-.152.49z"/></g><g><path fill="#383d5d" d="M33.226 126.562a2.02 2.02 0 1 0 1.448-3.772 2.02 2.02 0 0 0-1.448 3.772z"/></g><g><path fill="#383d5d" d="M20.336 96.994a2.024 2.024 0 1 1 .51 4.016 2.024 2.024 0 0 1-.51-4.016z"/></g><g><path fill="#383d5d" d="M13.222 127.403c0-1.277 1.277-2.554 2.554-2.554h28.197c1.277 0 2.554 1.277 2.554 2.554 0 1.278-1.277 2.555-2.554 2.555H15.776c-1.277 0-2.554-1.277-2.554-2.555z"/></g><g><path fill="#0e1632" d="M23.268 127.403c0-1.277 1.278-2.554 2.555-2.554h28.196c1.277 0 2.554 1.277 2.554 2.554 0 1.278-1.277 2.555-2.554 2.555H25.823c-1.277 0-2.555-1.277-2.555-2.555z"/></g><g><path fill="#fff" d="M51.076 81.335h7.414a3.933 3.933 0 0 0 3.918-3.918h-15.25a3.93 3.93 0 0 0 3.918 3.918z"/></g><g><path fill="#dff0f2" d="M51.216 80.553h4.45a2.361 2.361 0 0 0 2.357-2.354h-9.16a2.361 2.361 0 0 0 2.353 2.354z"/></g><g><path fill="#383d5d" d="M48.577 75.619h12.43a3.003 3.003 0 0 1 2.995 2.995H45.578a3.003 3.003 0 0 1 2.999-2.995z"/></g><g><path fill="#01020e" d="M48.577 75.619h5.683a3.003 3.003 0 0 1 3 2.995H45.577a3.003 3.003 0 0 1 2.999-2.995z"/></g><g><path fill="#fff" d="M137.949 15.997a.181.181 0 0 1-.182-.19c0-.098.08-.177.178-.177h2.298a.174.174 0 0 1 .178.178c0 .098-.08.178-.178.178z"/></g><g><path fill="#0076bd" d="M66.73 123.289H52.967a2.057 2.057 0 0 0 0 4.115h13.765a2.065 2.065 0 0 0 2.057-2.058 2.065 2.065 0 0 0-2.057-2.057z"/></g><g><path fill="#fff" d="M35.94 123.53h17.605a1.824 1.824 0 0 1 1.816 1.816 1.824 1.824 0 0 1-1.816 1.82H35.939z"/></g><g><path fill="#004a82" d="M35.94 123.289a.241.241 0 0 0 0 .481h17.605a1.58 1.58 0 0 1 0 3.155H35.939a.24.24 0 0 0 0 .478h17.606a2.057 2.057 0 1 0 0-4.114z"/></g><g><path fill="#004a82" d="M66.097 125.346a2.065 2.065 0 0 0-2.058-2.057h1.81a2.057 2.057 0 1 1 0 4.115h-1.791a2.065 2.065 0 0 0 2.057-2.058z"/></g><g><path fill="#004a82" d="M63.502 125.346a2.065 2.065 0 0 0-2.058-2.057h1.81a2.057 2.057 0 1 1 0 4.115h-1.791a2.065 2.065 0 0 0 2.057-2.058z"/></g><g><path fill="#e74d91" d="M39.561 119.685h12.052a1.802 1.802 0 1 1 0 3.604H39.561a1.802 1.802 0 0 1 0-3.604z"/></g><g><path fill="#fff" d="M66.52 119.897H51.105a1.594 1.594 0 0 0-1.59 1.59c0 .879.711 1.592 1.59 1.594H66.52z"/></g><g><path fill="#b92f6d" d="M66.52 119.685a.211.211 0 1 1 0 .423H51.105a1.383 1.383 0 0 0 0 2.762H66.52c.116 0 .21.094.21.21a.208.208 0 0 1-.21.209H51.105a1.802 1.802 0 0 1 0-3.604z"/></g><g><path fill="#b92f6d" d="M40.114 121.487a1.81 1.81 0 0 1 1.801-1.802h-1.564a1.802 1.802 0 0 0 0 3.604h1.564a1.805 1.805 0 0 1-1.801-1.802z"/></g><g><path fill="#b92f6d" d="M42.386 121.487c.002-.994.808-1.8 1.802-1.802H42.62a1.802 1.802 0 0 0 0 3.604h1.568a1.798 1.798 0 0 1-1.802-1.802z"/></g><g><path fill="#a8a6b5" d="M87.205 125.991c0-.94.94-1.88 1.88-1.88h59.199c.94 0 1.88.94 1.88 1.88s-.94 1.88-1.88 1.88h-59.2c-.939 0-1.879-.94-1.879-1.88z"/></g><g><path fill="#96929f" d="M148.399 127.874H89.203a2.028 2.028 0 0 1-1.646-.886 1.757 1.757 0 0 1 1.543-.886h59.191c.661.008 1.276.34 1.646.886a1.753 1.753 0 0 1-1.538.886z"/></g><g><path fill="#96929f" d="M149.63 124.115h-47.348a2.287 2.287 0 0 1-2.302-2.461l1.939-30.67a2.662 2.662 0 0 1 2.613-2.457h47.352a2.283 2.283 0 0 1 2.302 2.458l-1.935 30.669a2.673 2.673 0 0 1-2.621 2.461z"/></g><g><path fill="#fff" d="M149.63 124.115H103.66a2.287 2.287 0 0 1-2.302-2.461l1.935-30.67a2.67 2.67 0 0 1 2.618-2.457h45.968a2.284 2.284 0 0 1 2.302 2.458l-1.935 30.669a2.673 2.673 0 0 1-2.617 2.461z"/></g><g><path fill="#f0eef0" d="M117.066 88.527l35.485 28.36-.3 4.767c-.026.367-.13.725-.304 1.049l-42.762-34.176zm30.065 35.588h-4.73l-39.2-31.332.112-1.798c.036-.527.233-1.03.563-1.442z"/></g><g><path fill="#fff" d="M87.205 125.991c0-.94.94-1.88 1.88-1.88h10.758c.94 0 1.88.94 1.88 1.88s-.94 1.88-1.88 1.88H89.085c-.94 0-1.88-.94-1.88-1.88z"/></g><g><path fill="#d2ced6" d="M149.17 125.053H99.906a1.012 1.012 0 0 1-.994-.938.879.879 0 0 1 .886-.941h49.257c.527.006.96.416.997.941a.879.879 0 0 1-.882.938z"/></g><g><path fill="#0e1632" d="M93.107 86.113a9.742 9.742 0 0 1 .074-4.533l-7.763-.657 10.807-4.734s2.29-2.813 3.373-5.579c1.083-2.765-1.853-9.79-2.965-11.533-1.113-1.742-3.389-1.482-4.898-.54 0 0-2.26-3.411-4.963-3.638-2.703-.226-11.285.575-13.772 6.877-2.488 6.302 1.516 12.604-2.499 19.084-.2.5-.138 1.066.167 1.51.522.693 6.854 8.073 21.294 5.1 0 0 1.149-.267 1.145-1.345z"/></g><g><path fill="#010518" d="M82.931 88.045c.797-8.682 1.357-16.226 1.357-16.226l-.742-2.447S76.9 74.744 72.18 69.09c.223 3.882.779 7.785-1.683 11.76-.2.498-.138 1.065.167 1.508l.022.03.019.026.018.022.034.04.04.049.034.04.03.034.022.022.048.06.063.066.052.056.037.04.037.034.022.026.052.056.082.081.06.056.04.04c1.383 1.335 4.6 3.808 10.01 4.664.47.074.956.137 1.46.185z"/></g><g><path fill="#010518" d="M93.107 86.113c-.493-2.457-.148-3.443.538-6.724l-12.353-1.943-5.397 1.046a36.082 36.082 0 0 1-1.883 6.672c3.288 2.036 9.093 4.108 17.95 2.284 0 0 1.149-.267 1.145-1.346z"/></g><g><path fill="#e74d91" d="M76.718 86.647c3.418 1.072 8.089 2.354 12.118 4.334.279.137-.289 1.208-.03 1.353a9.5 9.5 0 0 1 1.77 1.438c1.882 1.854 5.712 16.427 5.367 17.876-.549 2.336-5.386 8.749-5.386 8.749-.96 1.854-2.154 4.556-3.337 7.477H63.202c1.675-5.438 2.298-9.127 2.343-12.448 1.282-11.292-4.79-13.75-4.79-13.75l6.302-14.799c2.447-.864 7.325-.541 7.325-.541 1.28 0 1.18-.052 2.336.311z"/></g><g><path fill="#b92f6d" d="M87.235 127.874h-3.392c.63-1.69 3.57-9.69 4.2-11.395-2.858-.5-6.791-1.18-7.485-1.346-.693-.167-3.336 1.353-3.336 1.353l.293-1.728-2.85 2.873 4.863-9.108s7.955 1.798 9.638 2.106c1.683.307.66.074.975.048.942-2.643-.6-3.385-.415-4.664s.234-13.694.234-13.694c1.03.53 1.483 1.69 2.076 3.518.37 1.201 2.417 9.101 3.255 13.776.2 1.112.37 1.946.46 2.595-1.877 4.804-6.11 9.66-8.516 15.666z"/></g><g><path fill="#e8685b" d="M82.65 73.005l-1.202 3.6s-1.82 8.526-2.243 9.638c-.144.37-.626.5-1.364.482 1.064 1.527 3.133 3.852 6.12 4.419 1.91.37 3.244 0 4.149-.53-.638-.337-1.25-.742-1.246-1.064.026-2.914.527-8.037 2.106-8.982 1.805-1.075-6.32-7.563-6.32-7.563z"/></g><g><path fill="#fff" d="M78.453 86.714a7.734 7.734 0 0 1-1.72-.067 12.942 12.942 0 0 0 3.825 3.455c4.712 2.988 6.98 1.36 7.7.593a5.307 5.307 0 0 1-1.15-.74c-4.4 2.15-8.655-3.245-8.655-3.245z"/></g><g><path fill="#1c2344" d="M88.647 90.888s1.88 18.907 1.65 20.515c-.23 1.61-3.218 9.469-5.835 16.471h4.504c.89-1.712 1.568-3.05 1.694-3.373.078-.212.39-.816.82-1.605a118.58 118.58 0 0 1 2.784-4.883c2.762-4.53 2.754-3.473 1.798-8.782-.842-4.675-3.422-13.323-3.804-14.524-.582-1.828-3.125-3.952-3.61-3.819z"/></g><g><path fill="#0e1632" d="M88.38 117.216a593.726 593.726 0 0 1-2.083 5.724c.961.045 1.916.182 2.85.408 1.369.537 1.513 1.153 1.513 1.153.078-.212.39-.816.82-1.605a118.62 118.62 0 0 1 2.784-4.883c.83-1.36 1.408-2.224 1.79-2.895-.534.463-1.379 1.168-1.79 1.294-.5.152-4.32.619-5.884.804z"/></g><g><path fill="#1c2344" d="M76.01 86.243s3.447 16.708 3.922 21.565c.474 4.856-1.05 8.333-2.758 11.981-.575 1.23-2.421 4.367-4.697 8.085H61.86l1.134-26.243-3.044-.708c.182-1.316.33-2.41.43-3.173l5.995-10.602s2.261-1.832 9.635-.905z"/></g><g><path fill="#0e1632" d="M69.556 94.284c-1.694 6.803-.516 9.638-.516 9.638l.886-4.244s.86 6.246 1.817 7.043c.47.397 6.117 1.483 8.233 1.872.127 2.38-.227 4.76-1.041 7-1.516.159-10.65-1.113-11.088 1.82-.219 1.483-.167-3.263-.167-3.263l-.541 13.717h-5.28l1.135-26.243-3.044-.708V97.735l3.674-5.727z"/></g><g><path fill="#383d5d" d="M61.155 94.562c-1.942 5.312-2.472 23.533-.87 33.312h8.526c-3.489-19.414 3.84-33.3 2.224-38.22-2.57-7.86-8.6 1.408-9.88 4.908z"/></g><g><path fill="#010518" d="M95.272 76.605l.953-.416a27.752 27.752 0 0 0 2.765-4.24c-.226.43-1.724 3.05-3.918 1.449-2.384-1.742-2.48 1.016-2.48 1.016s1.442 1.638 2.28 2.02c.107.052.244.108.4.17z"/></g><g><path fill="#e8685b" d="M94.26 75.022a2.717 2.717 0 1 0-.56 5.406 2.717 2.717 0 0 0 .56-5.406z"/></g><g><path fill="#e8685b" d="M75.32 73.09l-.2.019a2.717 2.717 0 1 0 2.224.741c0 .808-.207 1.787-1.238 1.798l.163-1.557a.938.938 0 0 0-.949-1z"/></g><g><path fill="#f4ad85" d="M87.031 60.449a9.338 9.338 0 0 0-10.22 8.304l-.875 8.419a9.342 9.342 0 0 0 8.304 10.224 9.342 9.342 0 0 0 10.224-8.304l.871-8.419a9.335 9.335 0 0 0-8.304-10.224z"/></g><g><path fill="#ed9072" d="M76.655 70.228l-.72 6.944a9.35 9.35 0 0 0 5.932 9.657c-5.424-2.247-2.643-11.666-2.643-11.666 1.112-.19 2.828-2.225 3.837-3.426 1.008-1.2 1.783-2.39 3.521-2.358 1.74.034 5.405.95 5.405.95a10.258 10.258 0 0 0 2.985 3.78l.37-3.436c.105-1 .047-2.01-.174-2.991l-.7-.4C87 63.084 80.677 66.48 76.655 70.227z"/></g><g><path fill="#010518" d="M93.949 68.037l-1.506.642a4.449 4.449 0 0 0-3.036-.49s-3.306-1.215-5.06-.537c-1.753.678-.723-1.757-.4-1.854.322-.096 3.64-.318 5.09-.037 1.45.282 3.625.616 3.625.616z"/></g><g><path fill="#010518" d="M76.336 72.642l.893.155s.62 2.822-1.134 2.844l.163-1.557a.875.875 0 0 0-.018-.3z"/></g><g><path fill="#0e1632" d="M89.407 68.19c-1.36-1.854-3.588-2.225-5.316.37-1.579 2.358-3.925 6.436-7.877 6.102v-.074l.218-2.632-.741.182a16.925 16.925 0 0 1-.137-4.716c.456-3.307 5.06-8.137 10.25-8.326 5.19-.19 8.96 2.899 9.702 4.656.741 1.757 1.482 5.746 1.482 5.746l-.915 1.305-.983 2.595c-2.387-2.32-2.142-4.519-3.18-5.624-.579-.6-1.42-.6-2.503.415z"/></g><g><path fill="#010518" d="M83.55 69.372c-1.564 2.369-3.815 5.583-7.336 5.286v-.074l.218-2.632-.741.182a66.644 66.644 0 0 1-.1-.712c3.974 1.16 7.948-2.039 7.96-2.05z"/></g><g><path fill="#484e6a" d="M87.643 90.362s2.424 19.881 2.376 20.526c-.048.645-.69 3.756-.69 3.756s1.168-1.962 1.457-3.589c.29-1.627 1.05-12.623 1.05-12.623l-1.29-.697 1.197-.07-1.976-6.176a1.78 1.78 0 0 0-.534-.642 33.15 33.15 0 0 0-1.464-.741.764.764 0 0 0-.441.056z"/></g><g><path fill="#484e6a" d="M76.01 86.243s3.447 16.708 3.922 21.565a17.248 17.248 0 0 1-.3 5.382c.634-4.967-6.358-16.656-6.358-16.656l1.82-.86-2.44-1.112s1.113-6.302 1.195-7.34c.081-1.038-.471-1.212-.501-1.223.8.048 1.687.122 2.662.244z"/></g><g><path fill="#01020e" d="M10.03 130.877H2.053a1.742 1.742 0 0 1 0-3.485h210.72c.958.004 1.733.781 1.735 1.739a1.742 1.742 0 0 1-1.735 1.735h-10.94c-1.206.004-169.694-.227-191.803.011z"/></g></g></g></svg>