<svg xmlns="http://www.w3.org/2000/svg" width="234" height="121" viewBox="0 0 234 121"><g><g><g><path fill="#00000f" d="M142.908 82.98c0-.252.253-.505.506-.505s.505.253.505.506v32.821c0 .253-.252.505-.505.505s-.506-.252-.506-.505z"/></g><g><path fill="#141a33" d="M141.526 83.417c0-.943.943-1.886 1.886-1.886s1.886.943 1.886 1.886v.324c0 .943-.943 1.886-1.886 1.886s-1.886-.943-1.886-1.886z"/></g><g><path fill="#141a33" d="M142.165 116.365c0-.504.505-1.01 1.01-1.01h1.13c.504 0 1.008.506 1.008 1.01 0 .505-.504 1.01-1.009 1.01h-1.13c-.504 0-1.009-.505-1.009-1.01z"/></g><g><path fill="#0e173f" d="M138.165 117.917c0-.775.775-1.55 1.55-1.55h8.052c.775 0 1.55.775 1.55 1.55s-.775 1.55-1.55 1.55h-8.052c-.775 0-1.55-.775-1.55-1.55z"/></g><g><path fill="#030822" d="M150.491 82.219a.978.978 0 0 0-.974-.974h-12.214a.978.978 0 0 0-.974.974.978.978 0 0 0 .974.974h12.214a.978.978 0 0 0 .974-.974z"/></g><g><path fill="#00000f" d="M133.735 81.815c0-.274.274-.548.548-.548h18.28c.274 0 .549.274.549.548 0 .275-.275.549-.549.549h-18.28c-.274 0-.548-.274-.548-.549z"/></g><g><path fill="#e13c83" d="M128.892 79.17h29.527c.73.003 1.322.594 1.324 1.324a1.327 1.327 0 0 1-1.324 1.323h-29.527a1.327 1.327 0 0 1-1.324-1.323 1.327 1.327 0 0 1 1.324-1.323z"/></g><g><path fill="#b83470" d="M142.12 79.17h16.3c.73.003 1.32.594 1.323 1.324a1.327 1.327 0 0 1-1.323 1.323h-16.3a1.327 1.327 0 0 1-1.323-1.323 1.327 1.327 0 0 1 1.323-1.323z"/></g><g><path fill="#2c3049" d="M144.421 108.424l-1.256.962.743 7.944s.03.587.301.587h.439s.208-.056.186-.409c-.022-.353-.212-7.873-.212-7.873z"/></g><g><path fill="#2c3049" d="M172.652 108.424l-1.256.962.743 7.944s.03.587.301.587h.439s.204-.056.186-.409c-.019-.353-.212-7.873-.212-7.873z"/></g><g><path fill="#2c3049" d="M144.912 105.74s-1.647.918-1.788 1.256c-.141.339-.498 1.84-.108 2.39s1.54.97 1.807 1.309c.267.338 1.646 6.178 1.646 6.178a1.38 1.38 0 0 0 1.417 1.044h7.203a.483.483 0 0 0 .335-.539 2.126 2.126 0 0 0-.402-.922 1.338 1.338 0 0 0-1.26-.61l-3.762-1-2.185-5.452-1.398-3.877s-1.074-.372-1.505.223z"/></g><g><path fill="#f5ac83" d="M154.877 96.66c-.687 1.077-6.55 8.902-6.337 9.727.312 1.2 1.323 4.605 1.665 5.776.847 2.903 1.963 2.747 2.475 2.747a1.141 1.141 0 0 1 1.116.937h-4.019a1.587 1.587 0 0 1-1.557-1.205c-.245-.743-1.84-7.382-2-8.036a1.253 1.253 0 0 0-1.308-.866L149 95.295z"/></g><g><path fill="#2c3049" d="M173.161 105.74s-1.646.918-1.788 1.256c-.14.339-.494 1.84-.104 2.39s1.54.97 1.807 1.309c.267.338 1.643 6.178 1.643 6.178a1.386 1.386 0 0 0 1.416 1.044h7.207a.487.487 0 0 0 .335-.539 2.17 2.17 0 0 0-.402-.922 1.338 1.338 0 0 0-1.26-.61l-3.765-1-2.186-5.452-1.401-3.877s-1.067-.372-1.502.223z"/></g><g><path fill="#f5ac83" d="M173.198 96.8s4.39 12.46 5.238 15.363c.847 2.903 1.966 2.747 2.479 2.747a1.145 1.145 0 0 1 1.115.937h-4a1.587 1.587 0 0 1-1.557-1.205c-.249-.743-1.858-7.382-2-8.036a1.253 1.253 0 0 0-1.312-.866l-3.397-6.765z"/></g><g><path fill="#030822" d="M138.522 54.13l-4.148 2.817s-1.226-.175-2.163 1.39c-1.836 3.063-3.966 9.39-3.45 12.902.781 5.311 3.045 7.932 10.036 7.932h14.75c.46 0-9.26 22.391-9.542 23.384-.283.992 12.887 4.954 18.763 2.761.287-.237.455-.587.461-.959.043-.535.056-1.072.037-1.61 0 0 9.984-2.865 11.434-5.17.09-.279.09-.58 0-.858-.115-.372-4.115-14.054-8.293-22.168-4.94-9.605-7.675-8.509-17.273-8.367 0 0-.2-2.851-.59-4.16.107-1.557-10.022-7.895-10.022-7.895z"/></g><g><path fill="#00000f" d="M163.278 102.748s3.226-.926 6.278-2.149c-.982-.918-2.584-2.516-2.777-3.345-.282-1.204-2.052-14.913-2.23-14.957-.179-.045-.193.16-.193.16z"/></g><g><path fill="#2c3049" d="M150.543 33.842l2.602 2.646c1.691 2.543 10.058 19.66 19.737 22.975 1.331.457-4.088.96-3.973 1.312a69.697 69.697 0 0 1-8.37-4.992c-1.454-1.063-7.933-7.151-7.933-7.151s-4.509-11.958-2.063-14.79z"/></g><g><path fill="#030822" d="M142.73 31.764c1.669.215 3.472.554 5.575.818 2.29.669 3.115 2.137 3.829 3.995.587 1.54 2.32 8.613 2.26 9.248.026 1.487-1.007 3.636-3.13 6.003-.888 3.19-2.23 8.464-2.416 9.479-.862 4.772-18.373-.465-17.47-2.584 4.502-10.574 1.297-16.603 1.952-20.781.03-.201.063-.398.093-.591l2.085-1.35-.703-1.226s2.383-2.004 7.234-2.885z"/></g><g><path fill="#ee9073" d="M142.96 25.018l-.093 1.765-.394 4.148c-.044.472-.903.94-2.174 1.086-.606.07.03 1.092 1.197 2.208 2.35 2.23 4.01.9 5.278.84 2.766-.123 3.412-2.498 2.134-2.654a1.743 1.743 0 0 1-1.23-.71c-.54-.714-.235-3.636.442-4.345.676-.71-5.16-2.338-5.16-2.338z"/></g><g><path fill="#fff" d="M146.774 35.065c-1.431 8.408-11.15-4.55-5.557-3.227"/></g><g><path fill="#fff" d="M148.93 32.418s.268 2.04-2.141 2.647c0 0 .892 2.683 2.513 2.312 1.62-.372 1.59-5.357-.372-4.959z"/></g><g><path fill="#301814" d="M151.852 20.501a.179.179 0 1 0 .16-.32 2.23 2.23 0 0 0-2.023 0 .178.178 0 0 0-.063.246c.052.084.16.112.245.063a1.858 1.858 0 0 1 1.68.011z"/></g><g><path fill="#00000f" d="M141.418 7.447a4.925 4.925 0 1 1-1.22 9.775 4.925 4.925 0 0 1 1.22-9.775z"/></g><g><path fill="#e94d90" d="M141.318 9.283a1.966 1.966 0 1 1-.485 3.903 1.966 1.966 0 0 1 .485-3.903z"/></g><g><path fill="#00000f" d="M139.734 16.933a.123.123 0 0 1 0 .242s-2.866.215-4.42-3.948a.12.12 0 0 1 .227-.082c1.494 3.978 4.182 3.788 4.193 3.788z"/></g><g><path fill="#e9695b" d="M153.212 21.91a1.944 1.944 0 1 0-.554 3.848 1.944 1.944 0 0 0 .554-3.848z"/></g><g><path fill="#00000f" d="M155.308 20.732s-1.371 5.947-2.624 5.914c.599-3.461-.271-3.784-.806-4.736z"/></g><g><path fill="#00000f" d="M139.767 19.07c-1.836 5.327-1.858 7.88.647 9.434 2.506 1.554 6.888 1.011 6.888 1.011z"/><path fill="none" stroke="#1a1a18" stroke-miterlimit="20" stroke-width=".57" d="M139.767 19.07c-1.836 5.327-1.858 7.88.647 9.434 2.506 1.554 6.888 1.011 6.888 1.011v0z"/></g><g><path fill="#00000f" d="M150.305 8.529c-1.573-.37-3.21-.39-4.791-.056-1.175.234-2.572 1.996-2.572 1.996s-.851-.97-1.792-.64c-.94.332-4.613 5.576-4.787 6.955-.175 1.38 2.564 4.832 2.564 4.832a.502.502 0 0 1 .591.573l-.126 1.007c.338.041.457-.446.513-.888l.115-.922c.57-.73.953-1.587 1.115-2.498l2.264.286a.49.49 0 0 0 .453-.345c.067-.19.35-1.461.432-1.766.081-.305.2-.442.252-.372.052.071-.04 1.16-.026 1.859.015.699.469.8.484.803l2.546.32z"/></g><g><path fill="#e9695b" d="M139.727 19.985h-.145a1.944 1.944 0 1 0 1.56.587c-.022.576-.2 1.271-.936 1.253l.16-1.116a.665.665 0 0 0-.64-.724z"/></g><g><path fill="#f5ac83" d="M148.462 11.283a6.69 6.69 0 0 0-7.546 5.65l-.866 5.996a6.69 6.69 0 0 0 5.639 7.545 6.69 6.69 0 0 0 7.549-5.639l.866-5.995a6.69 6.69 0 0 0-5.642-7.557z"/></g><g><path fill="#ee9073" d="M148.462 11.283a6.69 6.69 0 0 0-7.546 5.65l-.866 5.996a6.69 6.69 0 0 0 5.639 7.545c.137.022.271.037.405.048-4.223-.788-4.356-4.873-4.156-7.478.201-2.606 1.84-5.104 2.736-6.003.896-.9 2.602-.075 3.345 1.286.744 1.36 2.52 2.691 2.55 2.717.03.026.97.182.97.182l1.115-2.665s-1.256-4.148-2.14-6.62a6.65 6.65 0 0 0-2.052-.658z"/></g><g><path fill="#00000f" d="M142.492 18.048s-1.371 5.947-2.624 5.91c.598-3.457-.268-3.78-.807-4.732z"/></g><g><path fill="#00000f" d="M146.923 12.933l-.595.948s-1.327-.765-1.988 1.115c-.577 1.625-1.96 5.282-4.914 4.937-.45-.052-.766.182-1.298-.097 0 0 .673-6.404 3.019-7.97 2.345-1.564 5.776 1.067 5.776 1.067z"/></g><g><path fill="#00000f" d="M146.651 14.175l.014.019a4.457 4.457 0 0 0-.025-.019zm4.204 6.635c-1.341-1.115-2.137-2.74-2.85-4.215a13.963 13.963 0 0 0-1.34-2.401c1.84 1.447 2.584 4.555 4.19 6.616zm-6.757-7.412h.037c.042.04.099.058.156.052 1.669-.253 2.46 1.383 3.39 3.3.93 1.919 2.01 4.156 4.256 5.153.183.137.376.261.576.371 3.717 2.015 7.631-2.58 5.423-7.545-2.367-5.327-10.62-9.27-14.013-3.598 0 0-.699 1.226.175 2.263z"/></g><g><path fill="#2c3049" d="M134.23 35.418c-4.993 6.571-9.167 14.08-9.665 14.496-.587.483-.914.524-1.755.126-.84-.397-9.664-7.545-9.965-7.597-.3-.052-1.858 1.542-1.955 1.918-.097.375 9.385 10.266 10.92 11.15 1.536.886 4.179.54 5.598-.668 1.03-.874 5.238-5.516 7.48-8.007 2.37-2.624 3.571-7.783 3.612-7.961.29-2.008.126-3.918-1.253-4.643-1.007-.305-2.118.004-3.018 1.186z"/></g><g><path fill="#e94d90" d="M116.51 104.227s-1.487 1.034-1.561 1.342c-.074.309-.19 1.665.286 2.085.476.42 1.677.621 1.993.874.315.252 2.631 5.11 2.631 5.11.3.564.944.853 1.565.703l7.11-1.03a.413.413 0 0 0 .242-.512 1.859 1.859 0 0 0-.542-.744 1.487 1.487 0 0 0-1.346-.35l-3.877-.326-3.033-4.409-2.01-3.155s-1.127-.164-1.458.412z"/></g><g><path fill="#f5ac83" d="M115.849 96.957s5.608 9.686 6.917 12.076c1.308 2.39 2.386 2.097 2.892 2.022a1.167 1.167 0 0 1 1.23.662l-3.929.569a1.65 1.65 0 0 1-1.736-.818c-.371-.61-3.018-6.126-3.282-6.668-.264-.543-1.06-.68-1.43-.565l-4.432-5.241z"/></g><g><path fill="#030822" d="M94.29 109.587l-1.257.851.744 7.03s.026.52.297.52h.439s.208-.049.186-.372c-.023-.323-.209-6.966-.209-6.966z"/></g><g><path fill="#e94d90" d="M94.762 107.212s-1.647.814-1.788 1.115c-.141.301-.494 1.628-.108 2.115.387.487 1.543.862 1.807 1.16.264.297 1.646 5.468 1.646 5.468s.212.921 1.416.921h7.204a.439.439 0 0 0 .338-.475 1.858 1.858 0 0 0-.401-.818c-.3-.386-.778-.59-1.264-.54l-3.747-.888-2.178-4.832-1.397-3.43s-1.093-.324-1.528.204z"/></g><g><path fill="#f5ac83" d="M102.274 102.071c-1.297 1.65-4.089 5.1-3.9 5.713.313 1.063 1.32 4.09 1.662 5.115.852 2.568 1.967 2.427 2.48 2.427.512-.008.965.334 1.096.83h-3.98a1.561 1.561 0 0 1-1.558-1.064c-.25-.658-1.859-6.534-2.004-7.114-.145-.58-.918-.83-1.308-.766l2.873-5.903c.695-.067 4.985.327 4.639.762z"/></g><g><path fill="#00000f" d="M101.352 103.372s11.757-18.93 12.508-22.811c.717-3.717 1.409-6.178-21.187-14.939-.93-.371-1.662-1.163-2.736-1.312-15.556 2.676-22.648 9.293-1.022 11.36 17.496 1.676 14.998 7.638 14.998 7.638s-4.605 12.66-6.813 18.429c-.208.542 3.07 3.081 4.252 1.635z"/></g><g><path fill="#00000f" d="M88.963 82.471c0-.252.253-.505.506-.505s.505.253.505.505v32.822c0 .253-.252.505-.505.505s-.506-.253-.506-.505z"/></g><g><path fill="#141a33" d="M87.58 82.908c0-.943.944-1.886 1.887-1.886.943 0 1.886.943 1.886 1.886v.324c0 .943-.943 1.886-1.886 1.886s-1.886-.943-1.886-1.886z"/></g><g><path fill="#0e173f" d="M87.893 115.904c0-.504.504-1.009 1.009-1.009h1.13c.505 0 1.01.505 1.01 1.01 0 .504-.505 1.008-1.01 1.008h-1.13c-.505 0-1.01-.504-1.01-1.009z"/></g><g><path fill="#0e173f" d="M83.89 117.456c0-.775.775-1.55 1.55-1.55h8.05c.776 0 1.55.775 1.55 1.55s-.774 1.55-1.55 1.55h-8.05c-.775 0-1.55-.775-1.55-1.55z"/></g><g><path fill="#030822" d="M96.546 81.71a.978.978 0 0 0-.974-.974H83.358a.978.978 0 0 0-.974.973.978.978 0 0 0 .974.974h12.214a.977.977 0 0 0 .974-.974z"/></g><g><path fill="#00000f" d="M99.163 81.308a.55.55 0 0 0-.55-.55H80.336a.55.55 0 0 0 0 1.1h18.277a.55.55 0 0 0 .55-.55z"/></g><g><path fill="#e13c83" d="M73.623 79.981c0-.662.662-1.323 1.323-1.323h29.528c.662 0 1.324.661 1.324 1.323 0 .662-.662 1.323-1.324 1.323H74.946c-.661 0-1.323-.661-1.323-1.323z"/></g><g><path fill="#b83470" d="M86.852 79.981c0-.662.662-1.323 1.323-1.323h16.303c.662 0 1.323.661 1.323 1.323 0 .662-.661 1.323-1.323 1.323H88.175c-.661 0-1.323-.661-1.323-1.323z"/></g><g><path fill="#030822" d="M73.961 5.366a6.167 6.167 0 1 1 0 12.333 6.167 6.167 0 0 1 0-12.333z"/></g><g><path fill="#e94d90" d="M73.846 7.57a2.46 2.46 0 1 1 0 4.921 2.46 2.46 0 0 1 0-4.921z"/></g><g><path fill="#2c3049" d="M95.777 50.501c.104.168.84.209 1.04.13.201-.078 6.531-14.537 6.602-14.637a.26.26 0 0 1 .23-.074s1.353 1.572 2.368 1.687c0 0 .115.245.07.316-.044.07-3.505 14.262-6.382 18.503-1.379 2.03-4.196 2.807-5.869 1.097-2.87-2.94-6.096-8.71-8.01-14.024-.743-2.097-1.253-7.557 1.45-9.895.717-.617 1.829 1.033 2.297 2.115C90.04 36.8 95.777 50.5 95.777 50.5z"/></g><g><path fill="#030822" d="M89.134 62.422c.803.372 2.182 3.472 3.186 3.84 3.962 1.464 9.017 3.014 11.411 4.635 2.554 1.732 3.61 4.263 4.386 6.278.777 2.014 7.148 15.771 10.103 22.648.401.936-3.817 2.739-4.39 1.895-2.814-4.126-12.028-17.69-15.727-23.082l-15.54.022s-6.018-.967-9.293-5.204c-3.52-4.564-.617-15.7.933-15.85 2.944-.282 8.854-1.71 13.567.595 2.866 1.398.063 4.234 1.364 4.223z"/></g><g><path fill="#030822" d="M89.398 35.362c1.052 2.847 2.717 8.274 2.84 9.638.16 1.78-.606 4.557-1.182 6.196-1.085 3.07.141 7.672-.112 10.876a4.576 4.576 0 0 1-.605 2.104s-6.126 3.554-17.73-.743a4.832 4.832 0 0 1-.685-3.323c1.554-11.716.562-13.352-2.022-25.254 3.015-3.159 10.65-3.668 15.084-2.72 0 0 2.762 1.074 3.256 1.486.495.413 1.115 1.766 1.115 1.766z"/></g><g><path fill="#ee9073" d="M78.136 25.248l.026 1.62-.108 3.825c0 .435-.766.915-1.922 1.116-.55.1.093.996 1.234 1.947 2.29 1.907 3.717.573 4.88.443 2.528-.287 2.974-2.498 1.792-2.561a1.606 1.606 0 0 1-1.17-.577c-.54-.62-.44-3.315.137-4.003.576-.687-4.87-1.81-4.87-1.81z"/></g><g><path fill="#fff" d="M82.247 34.213c-.792 7.788-10.497-3.479-5.286-2.602"/></g><g><path fill="#fff" d="M84.05 31.656s.371 1.859-1.803 2.557c0 0 .985 2.402 2.445 1.96 1.461-.443 1.142-5-.643-4.517z"/></g><g><path fill="#e27e67" d="M88.075 19.416l.156.026a2.137 2.137 0 1 1-1.78.431c-.052.628.048 1.409.85 1.487l-.022-1.23a.743.743 0 0 1 .796-.714z"/></g><g><path fill="#e27e67" d="M73.474 19.416l-.156.026a2.137 2.137 0 1 0 1.78.431c.057.628-.044 1.409-.85 1.487l.026-1.23a.743.743 0 0 0-.8-.714z"/></g><g><path fill="#f5ac83" d="M73.88 16.06c0-3.652 3.652-7.304 7.304-7.304s7.304 3.652 7.304 7.303v6.647c0 3.651-3.652 7.303-7.304 7.303s-7.304-3.652-7.304-7.303z"/></g><g><path fill="#030822" d="M73.88 23.594V20.39a1.026 1.026 0 0 0-1.086-.744c-2.877-3.304-2.498-8.549.573-11.273 3.07-2.725 9.664-2.896 10.812-2.513 1.15.383 2.335 2.338 2.335 2.338s.977-.874 1.884-.42c.907.453 3.94 6.174 3.94 7.605 0 1.858-3.152 3.163-3.85 8.226-.35 0-.406-2.68-.406-3.134v-.94a5.72 5.72 0 0 1-.817-2.654h-2.312a.502.502 0 0 1-.417-.402c-.04-.197-.167-1.516-.208-1.828-.04-.313-.145-.472-.208-.39-.063.081-.104 1.174-.208 1.858-.104.684-.573.743-.587.743l-6.643.075c.42 2.304-2.698 6.657-2.802 6.657z"/></g><g><path fill="#fff" d="M101.887 28.972h-.847a.238.238 0 0 0-.16.064h-.018l-6.36-.487a.595.595 0 0 0-.647.602v8.634a.717.717 0 0 0 .647.703l6.36.487c.044.004.089.004.133 0h.892a.234.234 0 0 0 .123-.034l3.624-.61a.483.483 0 0 0 .372-.456v-9.16a.32.32 0 0 0-.372-.326l-3.635.613a.226.226 0 0 0-.112-.03z"/></g><g><path fill="#00000f" d="M106.33 28.575l-4.049.68a.524.524 0 0 0-.412.494v9.902a.346.346 0 0 0 .412.372l4.048-.684a.517.517 0 0 0 .413-.494v-9.917a.342.342 0 0 0-.413-.353z"/></g><g><path fill="#030822" d="M94.29 28.746l6.876.527a.777.777 0 0 1 .703.744v9.34a.643.643 0 0 1-.703.651l-6.876-.513a.773.773 0 0 1-.699-.743v-9.356a.643.643 0 0 1 .699-.65z"/></g><g><path fill="#2c3049" d="M101.11 29.873c0-.335.336-.67.67-.67h.08c.335 0 .67.335.67.67v9.476c0 .335-.335.67-.67.67h-.08c-.334 0-.67-.335-.67-.67z"/></g><g><path fill="#030822" d="M72.423 17.242a.116.116 0 1 1 .033.23s-2.78.45-4.643-3.487a.119.119 0 0 1 .216-.1c1.784 3.791 4.386 3.357 4.394 3.357z"/></g><g><path fill="#030822" d="M86.417 11.424a.117.117 0 0 0 .197.127s1.55-2.353-1.271-5.665a.119.119 0 1 0-.179.152c2.71 3.178 1.257 5.379 1.253 5.386z"/></g><g><path fill="#ed7862" d="M108.191 36.124c-.137 1.115-1.453 1.795-1.457 1.832-.003.038.026-2.72.026-2.72z"/></g><g><path fill="#ed7862" d="M107.028 30.779c.48-.171.892-.205.743.342a7.99 7.99 0 0 0 .034 1.918l-1.063-.1s-.227-1.952.286-2.16z"/></g><g><path fill="#f5ac83" d="M108.225 32.656c.208.316.137 3.717-.171 3.977-.309.26-2.275.394-2.293 0-.02-.394.788-.773.788-.773s-1.242.149-1.487-.372c-.246-.52.416-.743 1.29-.788.353 0-.744-.275-1.171-.45a.691.691 0 0 1-.301-.743c.081-.472 1.364-.148 1.813-.182a9.753 9.753 0 0 1-1.65-.424c-.372-.178-.673-.832.301-.843.622.013 1.243.064 1.859.152a.94.94 0 0 1 1.022.446z"/></g><g><path fill="#f5ac83" d="M92.431 37.815a2.974 2.974 0 0 0 .628-1.992 6.738 6.738 0 0 1-.022-2.431c.245-1.115.625-.777.77-.13.125.5.29.988.494 1.46 0 0 1.572-1.486 2.167-2.174.595-.687 1.267-.661 1.264-.141-.004.52-.205.528 0 .595a.42.42 0 0 1 .334.535l-.055.372s.438.03.483.371c-.006.28-.084.555-.227.796 0 0 .513.223.427.468a9.293 9.293 0 0 1-1.925 2.197c-.777.59-2.063 1.33-2.427 1.858-.364.528-1.91-1.784-1.91-1.784z"/></g><g><path fill="#ed7862" d="M92.431 37.815c.364-.464.581-1.025.625-1.613.546 1.182 1.758 1.617 3.003 1.223a46.64 46.64 0 0 0 1.62-.565 7.186 7.186 0 0 1-.91.866c-.777.591-2.063 1.33-2.427 1.859-.364.527-1.91-1.77-1.91-1.77z"/></g><g><path fill="#2c3049" d="M80.741 51.754c.197-.082 11.79-14.359 11.861-14.46a.268.268 0 0 1 .23-.074s1.677 1.718 2.692 1.833c0 0 .119.245.074.316-.044.07-9.318 13.697-12.192 17.935-1.379 2.029-3.843 2.69-5.512.98-2.873-2.943-7.107-8.712-9.021-14.023-.744-2.1-1.253-7.56 1.45-9.895.717-.62 1.828 1.033 2.297 2.111.583 1.35 8.032 15.31 8.121 15.277z"/></g><g><path fill="#ed7862" d="M76.586 18.42c3.55-.275 8.92.067 11.065.23a4.884 4.884 0 0 1-.371-1.78h-2.313a.502.502 0 0 1-.416-.402c-.04-.197-.167-1.516-.208-1.828-.04-.313-.145-.472-.208-.39-.063.081-.104 1.174-.208 1.858-.104.684-.573.743-.588.743l-6.382.07h-.26c0 .042 0 .083.019.123a3.78 3.78 0 0 1-.13 1.376z"/></g><g><path fill="#030822" d="M116.774 110.661l-1.256.963.743 7.943s.026.588.297.588h.439s.208-.056.186-.406c-.022-.349-.212-7.876-.212-7.876z"/></g><g><path fill="#563f2f" d="M162.449 102.424l-.94 1.268c3.412 4.252 5.653 3.836 7.679 3.9.884.021.152.798.152.798l3.197.773.925-1.538s-5.23-3.613-11.013-5.204z"/></g><g><path fill="#a36e50" d="M171.942 100.421l-1.487 1.985s-1.487.152-3.509.253c-.16 0-1.724-.517-2.338-.629-1.204-.215-3.557-.104-1.546 2.115 1.457 1.617 3.156 2.55 5.182 2.677 1.148.056 2.284.257 3.382.598l1.725.535s1.944-3.345 2.007-4.568c.063-1.223-3.427-2.973-3.427-2.973z"/></g><g><path fill="#563f2f" d="M184.052 116.293v1.583c5.278 1.38 6.82-.294 8.486-1.457.725-.502.598.558.598.558l3.03-1.283-.167-1.788s-6.356.208-11.947 2.387z"/></g><g><path fill="#a36e50" d="M190.49 109.04v2.48s-1.093.992-2.665 2.282c-.126.104-1.699.621-2.256.9-1.093.535-2.918 2.033.022 2.602 2.13.423 4.052.167 5.758-.94a13.813 13.813 0 0 1 3.07-1.532l1.706-.599s-.427-3.843-1.115-4.865c-.688-1.022-4.527-.342-4.527-.342z"/></g><g><path fill="#e9695b" d="M199.11 11.625a2.163 2.163 0 0 1 1.921 2.29 2 2 0 0 1-2.193 1.884 2.156 2.156 0 0 1-1.918-2.286 1.996 1.996 0 0 1 2.19-1.888z"/></g><g><path fill="#00000f" d="M197.995 9.202c-.837 3.118.435 5.33 1.16 6.634.724 1.305 1.267-6.69 1.267-6.69z"/><path fill="none" stroke="#1a1a18" stroke-miterlimit="20" stroke-width=".57" d="M197.995 9.202c-.837 3.118.435 5.33 1.16 6.634.724 1.305 1.267-6.69 1.267-6.69v0z"/></g><g><path fill="#141a33" d="M196.809 25.832a6.84 6.84 0 0 0-2.498 2.33c-.606.94-7.806 18.648-8.263 19.8-.457 1.153-.35 3.948.91 5.558.514.654 2.027 2.535 3.647 4.538 1.431 1.777 4.089 1.654 6.167 1.788-1.416-2.115-5.814-8.69-6.052-9.088-.282-.476-.43-.944 0-1.829.432-.885 6.405-10.118 6.405-10.118s2.728-10.04-.316-12.98z"/></g><g><path fill="#f08a71" d="M198.11 60.102h-2.717a1.39 1.39 0 0 1-1.394-1.442 1.487 1.487 0 0 1 1.487-1.438h2.717a1.39 1.39 0 0 1 1.394 1.438 1.487 1.487 0 0 1-1.487 1.442z"/></g><g><path fill="#101537" d="M216.754 73.116v-3.981h2.446v3.98z"/></g><g><path fill="#b83470" d="M197.597 36.518v31.788a2.163 2.163 0 0 0 2.156 2.156h22.402a2.163 2.163 0 0 0 2.156-2.156v-34c-.018-7.365-5.986-13.331-13.351-13.347-7.366.016-13.334 5.982-13.352 13.347z"/></g><g><path fill="#e13c83" d="M195.764 36.518v31.788a2.163 2.163 0 0 0 2.156 2.156h22.392a2.163 2.163 0 0 0 2.155-2.156v-34c-.018-7.365-5.985-13.331-13.351-13.347-7.366.016-13.333 5.982-13.352 13.347z"/></g><g><path fill="#00000f" d="M201.749 76.532c0-.298.297-.595.595-.595.297 0 .594.297.594.595v38.701c0 .298-.297.595-.594.595-.298 0-.595-.297-.595-.595z"/></g><g><path fill="#141a33" d="M200.12 77.05c0-1.112 1.113-2.224 2.225-2.224 1.113 0 2.225 1.112 2.225 2.224v.38c0 1.112-1.112 2.224-2.225 2.224-1.112 0-2.224-1.112-2.224-2.225z"/></g><g><path fill="#0e173f" d="M200.504 115.899c0-.595.594-1.19 1.19-1.19h1.333c.595 0 1.19.595 1.19 1.19 0 .594-.595 1.19-1.19 1.19h-1.334c-.595 0-1.19-.596-1.19-1.19z"/></g><g><path fill="#0e173f" d="M196.155 117.726c0-.914.913-1.827 1.827-1.827h9.497c.913 0 1.827.913 1.827 1.827 0 .913-.914 1.826-1.827 1.826h-9.497c-.914 0-1.827-.913-1.827-1.826z"/></g><g><path fill="#030822" d="M210.692 75.636a1.152 1.152 0 0 0-1.149-1.149h-14.4a1.152 1.152 0 0 0-1.148 1.149 1.152 1.152 0 0 0 1.149 1.148h14.4a1.152 1.152 0 0 0 1.148-1.148z"/></g><g><path fill="#00000f" d="M213.777 75.164a.647.647 0 0 0-.647-.647h-21.558a.65.65 0 0 0-.647.647.65.65 0 0 0 .647.647h21.558a.65.65 0 0 0 .647-.647z"/></g><g><path fill="#e13c83" d="M185.223 72.041h34.814c.86.003 1.559.7 1.56 1.562-.001.861-.7 1.559-1.56 1.56h-34.814a1.565 1.565 0 0 1-1.561-1.56c.002-.862.7-1.56 1.561-1.561z"/></g><g><path fill="#b83470" d="M200.82 72.041h19.217c.86.003 1.559.7 1.56 1.562-.001.861-.7 1.559-1.56 1.56H200.82a1.565 1.565 0 0 1-1.562-1.56c.002-.862.7-1.56 1.562-1.561z"/></g><g><path fill="#00000f" d="M190.066 109.736s-10.389-34.197-11.233-37.962c-.81-3.628-6.047-8.828 16.244-12.419.936-.148 1.557-1.115 2.602-1.275 0 0 18.247.889 20.347 1.703 2.1.814-2.23 7.724-19.002 9.356-16.77 1.631-9.073 7.434-9.073 7.434s4.602 30.75 5.204 32.367c.602 1.617-5.368 3.212-5.089.796z"/></g><g><path fill="#030822" d="M198.366 56.244c-.435.2-1.03 1.286-1.631 2.23-1.316 2.078-6.85 3.992-9.724 6.007-2.401 1.684-3.345 4.148-4.018 6.11-.9 2.58-11.575 29.514-12.21 30.644-.636 1.13.371 2.665 3.423 3.223.9.163 1.765-2.138 1.765-2.138s12.675-24.075 16.697-30.305l15.612.023c12.83.018 8.381-19.678 5.378-19.972-2.832-.271-9.664-2.197-14.125.052-2.698 1.372.082 4.137-1.167 4.126z"/></g><g><path fill="#ee9073" d="M207.71 16.989l.03 1.661.26 3.918c.027.383.205.513.681.818.654.977-.743 5.233-1.914 5.42-1.171.185-6.69-.168-7.089-.462-.286-.208 2.294-3.936 2.097-4.538.227-.05.44-.154.62-.301 1.116-1.015.785-3.755-.118-4.71-.673-.713 5.434-1.806 5.434-1.806z"/></g><g><path fill="#f6f5f4" d="M198.385 29.943c.959-.584 1.557-.127 2.71.918 1.152 1.044 2.167.929 2.78 1.152.613.223 1.234 10.036-2.572 11.597-1.409.576-2.346 0-2.974-1.149-1.14-2.074-2.434-10.994.056-12.518z"/></g><g><path fill="#cfc9d0" d="M217.397 56.404c-.423 1.06-1.977 1.937-3.843 2.602-2.85-1.115-7.575.595-11.18.42-4.09-.197-5.807-1.145-5.807-1.145l-.26.19a1.207 1.207 0 0 1-.294-.29c-.487-.725-.293-1.803-.14-2.766.27-1.728 1.739-.52.85-8.686-.888-8.167-3.475-22.098 5.137-23.135 0 0-.081.197-.2.565h.371s-.695 2.487.956 3.297c1.65.81 3.382-.346 4.118-1.297a.468.468 0 0 1 .372-.197 31.984 31.984 0 0 1 1.717-2.134c1.859.286 4.832 1.654 4.832 1.654 1.487.654 3.134 2.03 3.472 3.52.48 2.115-1.383 9.293-2.676 13.913-2.186 7.746 3.817 10.393 2.575 13.489z"/></g><g><path fill="#ea574d" d="M202.485 30.088s-3.457 15.258-3.944 18.295a2.39 2.39 0 0 0 .372 1.405c.45.765 1.895 3.312 2.118 3.609.223.297.372.078.64-.178.267-.257 1.959-2.112 2.23-2.469.156-.197.286-.46.249-1.144-.227-4.242-.703-8.118-.636-12.705.034-2.48.138-4.832.32-6.446l-.372-1.338s-.974.48-.977.97z"/></g><g><path fill="#d84743" d="M200.768 37.77c-.945 4.279-1.978 9.055-2.23 10.613a2.39 2.39 0 0 0 .371 1.405l.61 1.055 1.078-9.79.17-3.282z"/></g><g><path fill="#ea574d" d="M201.868 28.456l.617 1.617a1.271 1.271 0 0 1 1.349.371l1.197-1.234-.572-1.096a2.944 2.944 0 0 0-1.52-.335c-.453.019-.86.276-1.071.677z"/></g><g><path fill="#fff" d="M209.339 23.42c.254.153.49.335.702.542a.87.87 0 0 1 .019.714c-.149.438-4.089 5.627-4.089 5.627s-.13.186-.32-.018c-.189-.205-1.858-2.569-1.858-2.569l4.988-4.442c.168-.17.413.052.558.145z"/></g><g><path fill="#fff" d="M202.455 23.441h-.022a1.595 1.595 0 0 0-1.301.272c-.71.71.04 5.033.282 5.769a.327.327 0 0 0 .413.063c.227-.145 1.416-1.97 1.416-1.97-.197-.357-1.699-2.186-.788-4.134z"/></g><g><path fill="#141a33" d="M209.707 23.668s-5.393 12.463-5.84 18.325c-.446 5.862 4.725 18.076 5.056 18.749.33.673 6.456 3.557 9.251 3.576 0 0 .443 0 .547-.145.104-.145.505-.61.646-.8.19-.296.23-.666.105-.996-.145-.472-3.435-15.314-3.848-17.247-.412-1.933 1.825-12.158 2.153-14.054.327-1.895.758-5.367-8.07-7.408z"/></g><g><path fill="#3f4154" d="M208.402 26.82c-1.624 4.089-4.233 11.17-4.542 15.173-.027.371-.034.743-.022 1.115a10.445 10.445 0 0 1 2.36-3.895 55.992 55.992 0 0 1 3.423-3.275c1.365-1.182 3.082-2.327 2.803-3.631-.279-1.305-1.26-5.204-1.26-5.204z"/></g><g><path fill="#141a33" d="M201.14 23.705s-.662 15.24-.915 17.062c-.253 1.82-2.375 16.232-2.565 17.313-.19 1.082-3.156 1.372-3.156 1.372s1.227-14.262 1.234-14.656c.008-.394-.3-10.995-.342-12.296-.04-1.301 1.294-6.059 1.52-6.572.227-.513 1.822-1.747 4.223-2.223z"/></g><g><path fill="#3f4154" d="M200.968 27.79c-.215 4.654-.561 11.772-.743 12.977-.048.341-.16 1.115-.316 2.189 0 0-1.981-12.04-1.859-12.474.123-.435 1.825-3.829 1.825-3.829z"/></g><g><path fill="#575a6d" d="M201.14 23.705l-.253 5.576c-.87-1.115-1.967-2.572-1.859-2.766a256.43 256.43 0 0 0 1.487-2.665c.204-.052.409-.1.624-.145z"/></g><g><path fill="#575a6d" d="M211.547 24.155s1.018 3.858 1.048 4.156c.022.23-4.237 2.55-6.074 3.542 1.543-4.386 3.186-8.177 3.186-8.177.665.148 1.297.32 1.84.48z"/></g><g><path fill="#141a33" d="M215.435 25.832a6.84 6.84 0 0 1 2.498 2.33c.61.94 7.805 18.648 8.266 19.8.461 1.153.35 3.948-.914 5.558-.513.654-2.026 2.535-3.646 4.538-1.431 1.777-4.09 1.654-6.167 1.788 1.416-2.115 5.817-8.69 6.051-9.088.283-.476.431-.944 0-1.829-.43-.885-6.43-10.118-6.43-10.118s-2.695-10.04.342-12.98z"/></g><g><path fill="#030822" d="M198.894 24.441a15.24 15.24 0 0 0-3.457 7.69.096.096 0 0 1-.033.06c.148-1.152.378-2.292.688-3.412a14.914 14.914 0 0 1 2.285-4.089c.16-.074.335-.16.517-.249z"/></g><g><path fill="#030822" d="M215.88 37.05a.104.104 0 0 1-.103.111.108.108 0 0 1-.115-.108c0-.026-.42-7.687 1.308-10.073l.141.141c-1.646 2.26-1.23 9.902-1.23 9.929z"/></g><g><path fill="#f08a71" d="M214.138 60.102h2.717a1.39 1.39 0 0 0 1.394-1.442 1.487 1.487 0 0 0-1.487-1.438h-2.717a1.39 1.39 0 0 0-1.394 1.438c.033.8.686 1.433 1.487 1.442z"/></g><g><path fill="#e9695b" d="M213.197 12.997a2.163 2.163 0 0 1 1.922 2.29 2 2 0 0 1-2.19 1.888 2.163 2.163 0 0 1-1.921-2.29 2 2 0 0 1 2.19-1.888z"/></g><g><path fill="#f5ac83" d="M206.369 1.693a7.434 7.434 0 0 1 6.58 7.84l-.42 6.5a6.87 6.87 0 0 1-7.506 6.476 7.434 7.434 0 0 1-6.579-7.843l.212-3.245.212-3.253a6.862 6.862 0 0 1 7.501-6.475z"/></g><g><path fill="#ee9073" d="M209.205 2.611a7.494 7.494 0 0 1 3.717 6.925l-.42 6.501a6.87 6.87 0 0 1-7.479 6.472 7.096 7.096 0 0 1-2.494-.744c7.211 1.561 7.955-3.955 8.211-7.936.372-5.88-5.53-1.858-12.01-2.973-.23-.038.305-1.974.09-2.004l.048-.713a7.09 7.09 0 0 1 .372-1.833c2.895-1.505 6.895-3.438 8.735-3.635l1.178-.123.045.022c-.052.038-.052.041.007.041z"/></g><g><path fill="#00000f" d="M211.376 9.87s-.13 2.019-.212 3.32c-.082 1.3-.093 1.602.517 2.141 0 0 0 1.728.691 2.093 0 0 .535-3.175 1.312-4.539l.082-5.445a4.14 4.14 0 0 1-2.42 1.684c.038.247.048.497.03.747z"/></g><g><path fill="#00000f" d="M198.679 11.079s-1.536-1.316-1.952-2.74c-1.115-3.717 4.264-11.638 11.46-6.869 2.193 1.45 4.088-.52 4.434 3.312 0 0 .524-.498.94-.33.417.167-.211 1.066-.211 1.066s1.405 1.115 1.583 1.933c.179.818-1.635 4.602-1.535 5.676l-.77-3.271-3.716-3.543-6.933-.717-3.16 3.197z"/></g><g><path fill="#00000f" d="M212.03 11.528s-1.955-.594-1.858-2.445c-.666.98-2.23 1.055-1.346-.484a14.17 14.17 0 0 1-10.27 1.614s-.51-5.948.632-6.45c1.14-.501 8.582.882 9.408 1.264.825.383 5.159 2.881 5.159 2.881z"/></g><g><path fill="#d7bda4" d="M216.888 62.024a1.676 1.676 0 0 0-3.345.22c.242 3.53.624 7.452 1.193 11.801h-30.242a384.475 384.475 0 0 0 1.454-11.735 1.665 1.665 0 1 0-3.312-.353c-.743 6.932-1.88 15.385-3.576 25.648-1.442 8.742-3.286 18.785-5.627 30.308h3.393a862.153 862.153 0 0 0 5.52-29.773 511.963 511.963 0 0 0 1.676-10.757h31.19a353.317 353.317 0 0 0 1.777 10.78c1.58 8.597 3.743 18.454 6.664 29.735h3.438c-3.007-11.556-5.226-21.61-6.828-30.342-.788-4.299-1.433-8.289-1.936-11.968 0-.082-.019-.16-.034-.242-.687-4.955-1.137-9.386-1.405-13.322z"/></g><g><path fill="#d7bda4" d="M109.31 62.024a1.676 1.676 0 1 0-3.345.22c.242 3.53.624 7.452 1.193 11.801H76.916A384.766 384.766 0 0 0 78.37 62.31a1.665 1.665 0 1 0-3.312-.353c-.743 6.932-1.88 15.385-3.576 25.648-1.442 8.742-3.286 18.785-5.631 30.308h3.397a861.937 861.937 0 0 0 5.52-29.773 782.035 782.035 0 0 0 1.68-10.753h31.186a353.224 353.224 0 0 0 1.777 10.779c1.576 8.597 3.743 18.455 6.664 29.736h3.438c-3.007-11.556-5.226-21.61-6.828-30.342a272.22 272.22 0 0 1-1.94-11.969 1.35 1.35 0 0 0-.033-.241c-.684-4.959-1.134-9.39-1.402-13.326z"/></g><g><path fill="#00000f" d="M72.493 60.467h147.96c.702.004 1.27.572 1.275 1.275a1.279 1.279 0 0 1-1.275 1.275H72.493a1.279 1.279 0 0 1-1.275-1.275 1.282 1.282 0 0 1 1.275-1.275z"/></g><g><path fill="#bf8862" d="M69.78 58.49h153.386c.898.001 1.625.73 1.625 1.627a1.632 1.632 0 0 1-1.625 1.625H69.78a1.632 1.632 0 0 1-1.628-1.625 1.632 1.632 0 0 1 1.628-1.628z"/></g><g><path fill="#a36e50" d="M204.18 58.49h1.758v3.252h-1.758zm3.605 0h.877v3.252h-.877zm3.888 0h3.792v3.252h-3.792zm6.639 0h1.892v3.252h-1.892zm-19.277 0h3.387v3.252h-3.387z"/></g><g><path fill="#d49f81" d="M69.91 59.017h77.02a.97.97 0 0 1 .967.967.97.97 0 0 1-.967.966H69.91a.97.97 0 0 1-.967-.966.97.97 0 0 1 .967-.967z"/></g><g><path fill="#121b23" d="M.011 119.463c0-.773.773-1.546 1.547-1.546h230.73c.773 0 1.546.773 1.546 1.546s-.773 1.547-1.546 1.547H1.558c-.774 0-1.547-.774-1.547-1.547z"/></g><g><path fill="#1c2b3f" d="M39.624 78.914c4.761-2.531 5.97 2.974 4.118 7.535-1.851 4.56-11.352 19.9-11.85 25.985-.19 2.357-.632 2.1-1.007.446-1.877-8.248 2.182-30.483 8.739-33.966z"/></g><g><path fill="#1874ba" d="M29.54 58.017c-5.461-4.917-8.877 1.967-7.933 8.605.944 6.639 8.445 30.048 7.096 38.256-.524 3.181.141 2.973 1.182.921 5.204-10.28 7.163-41.013-.346-47.782z"/></g><g><path fill="#002846" d="M28.588 107.156c.115.305.371.156.725-.371 5.69-18.957-3.175-47.285-3.205-47.378a.297.297 0 0 0-.564.175c.03.097 9.013 28.826 3.044 47.574z"/></g><g><path fill="#e94d90" d="M17.611 73.77c-5.293-2.305-6.122 3.672-3.765 8.382 2.357 4.71 13.753 20.284 14.805 26.733.401 2.497.847 2.185 1.115.39 1.312-8.954-4.87-32.334-12.155-35.505z"/></g><g><path fill="#e13c83" d="M29.134 110.602c.164.2.316.022.45-.442-.48-15.541-14.125-34.435-14.177-34.494a.234.234 0 0 0-.371.271c.037.067 13.879 19.22 14.098 34.665z"/></g><g><path fill="#3b405f" d="M25.064 107.167H35.23l2.654 2.398-2.167 8.352h-11.14l-2.167-8.352z"/></g><g><path fill="#3b405f" d="M21.566 106.32c0-1.13 1.13-2.26 2.26-2.26h12.638c1.13 0 2.26 1.13 2.26 2.26v.985c0 1.13-1.13 2.26-2.26 2.26H23.826c-1.13 0-2.26-1.13-2.26-2.26z"/></g><g><path fill="#101537" d="M37.884 109.565l-.446 1.713H22.856l-.446-1.713z"/></g><g><path fill="#a8a6b6" d="M179.781 58.49h23.417a.803.803 0 0 0 .788-.744.695.695 0 0 0-.698-.744H179.87a.803.803 0 0 0-.791.744.695.695 0 0 0 .702.743z"/></g><g><path fill="#9895a2" d="M179.781 58.49h23.417a.803.803 0 0 0 .65-.35.695.695 0 0 0-.609-.353h-23.417a.803.803 0 0 0-.654.353c.127.217.361.35.613.35z"/></g><g><path fill="#9895a2" d="M179.272 57.002h18.741a.907.907 0 0 0 .915-.973l-.77-12.14a1.052 1.052 0 0 0-1.033-.974H178.38a.907.907 0 0 0-.91.974l.765 12.14a1.06 1.06 0 0 0 1.037.973z"/></g><g><path fill="#fff" d="M179.272 57.002h18.187a.907.907 0 0 0 .915-.973l-.751-12.14a1.06 1.06 0 0 0-1.037-.974H178.38a.907.907 0 0 0-.91.974l.765 12.14a1.06 1.06 0 0 0 1.037.973z"/></g><g><path fill="#f3f2f4" d="M195.281 42.915l-16.923 13.526a.984.984 0 0 1-.123-.412l-.119-1.889 14.047-11.225zm2.09.401c.129.165.207.364.222.573l.045.71-15.519 12.403h-1.858z"/></g><g><path fill="#fff" d="M198.935 58.49h4.263a.803.803 0 0 0 .788-.744.695.695 0 0 0-.698-.744h-4.264a.8.8 0 0 0-.788.744.695.695 0 0 0 .699.743z"/></g><g><path fill="#d4d1d8" d="M179.458 57.374h19.496a.401.401 0 0 0 .394-.372.345.345 0 0 0-.35-.371h-19.5a.401.401 0 0 0-.393.371.35.35 0 0 0 .353.372z"/></g><g><path fill="#3b3a3a" d="M172.455 56.148h-7.828a1.17 1.17 0 0 0 0 2.341h7.828a1.17 1.17 0 0 0 0-2.341z"/></g><g><path fill="#fff" d="M154.94 56.285h10.014c.57.002 1.031.464 1.033 1.033a1.037 1.037 0 0 1-1.033 1.034H154.94z"/></g><g><path fill="#242525" d="M154.94 56.148a.138.138 0 0 0 0 .275h10.014a.9.9 0 0 1 .9.895.907.907 0 0 1-.264.636.892.892 0 0 1-.636.264H154.94a.138.138 0 1 0 0 .271h10.014a1.17 1.17 0 1 0 0-2.341z"/></g><g><path fill="#242525" d="M172.098 57.318a1.182 1.182 0 0 0-1.17-1.17h1.018a1.17 1.17 0 1 1 0 2.341h-1.019a1.175 1.175 0 0 0 1.171-1.17z"/></g><g><path fill="#242525" d="M170.623 57.318a1.182 1.182 0 0 0-1.171-1.17h1.037a1.17 1.17 0 1 1 0 2.341h-1.019a1.174 1.174 0 0 0 1.171-1.17z"/></g><g><path fill="#c8dee1" d="M157 54.103h6.858a1.026 1.026 0 0 1 0 2.048H157a1.026 1.026 0 0 1 0-2.048z"/></g><g><path fill="#fff" d="M172.347 54.218h-8.78a.907.907 0 0 0-.903.907c0 .5.405.904.904.904h8.78z"/></g><g><path fill="#7a9297" d="M172.347 54.103a.119.119 0 1 1 0 .238h-8.78a.784.784 0 0 0-.784.788.788.788 0 0 0 .785.784h8.78a.119.119 0 1 1 0 .238h-8.78a1.026 1.026 0 0 1 0-2.048z"/></g><g><path fill="#7a9297" d="M157.316 55.125a1.03 1.03 0 0 1 1.022-1.026h-.889a1.026 1.026 0 0 0 0 2.049h.889a1.03 1.03 0 0 1-1.022-1.023z"/></g><g><path fill="#7a9297" d="M158.594 55.125a1.03 1.03 0 0 1 1.026-1.026h-.892a1.026 1.026 0 0 0 0 2.049h.892a1.03 1.03 0 0 1-1.026-1.023z"/></g><g><path fill="#e9695b" d="M169.675 52.048h-5.1a1.026 1.026 0 1 0 0 2.051h5.1a1.026 1.026 0 0 0 0-2.051z"/></g><g><path fill="#fff" d="M158.74 52.167h6.121a.91.91 0 0 1 .907.907.91.91 0 0 1-.907.907h-6.122z"/></g><g><path fill="#f08a71" d="M158.74 52.048a.123.123 0 0 0 0 .241h6.121a.788.788 0 0 1 0 1.573h-6.122a.119.119 0 1 0 0 .237h6.122a1.026 1.026 0 1 0 0-2.051z"/></g><g><path fill="#f08a71" d="M169.374 53.074a1.03 1.03 0 0 0-1.026-1.026h.892a1.026 1.026 0 0 1 0 2.051h-.892a1.03 1.03 0 0 0 1.026-1.025z"/></g><g><path fill="#f08a71" d="M168.065 53.074a1.022 1.022 0 0 0-1.022-1.044h.892a1.026 1.026 0 0 1 0 2.05h-.892a1.022 1.022 0 0 0 1.022-1.006z"/></g><g><path fill="#e4e1e8" d="M106.099 42.278c0-1.04 1.04-2.08 2.08-2.08h9.333c1.04 0 2.08 1.04 2.08 2.08v12.488c0 1.04-1.04 2.08-2.08 2.08h-9.333c-1.04 0-2.08-1.04-2.08-2.08z"/></g><g><path fill="#fff" d="M118.361 41.948c0-.875.875-1.75 1.75-1.75h7.852c.875 0 1.75.875 1.75 1.75v13.148c0 .875-.875 1.75-1.75 1.75h-7.852c-.875 0-1.75-.875-1.75-1.75z"/></g><g><path fill="#fff" d="M104.326 46.524h12.266c0-1.632 1.754-1.81 1.754-1.81H106.08s-1.754.178-1.754 1.81z"/></g><g><path fill="#101537" d="M105.59 55.536c0-.685.685-1.37 1.37-1.37h10.856c.685 0 1.37.685 1.37 1.37v1.58c0 .685-.685 1.37-1.37 1.37H106.96c-.685 0-1.37-.685-1.37-1.37z"/></g><g><path fill="#3b405f" d="M118.38 54.17h2.07c.378.032.702.28.833.636.297.646.264 1.29 1.145 1.29h3.323c.88 0 .847-.644 1.144-1.29a.97.97 0 0 1 .833-.636h1.963a.51.51 0 0 1 .509.506v3.304a.51.51 0 0 1-.51.51h-11.31a.505.505 0 0 1-.506-.51v-3.304c0-.28.227-.506.506-.506z"/></g><g><path fill="#fff" d="M104.326 52.245h12.266c0-1.632 1.754-1.81 1.754-1.81H106.08s-1.754.16-1.754 1.81z"/></g><g><path fill="#aeabba" d="M131.192 49.509h-11.225c0-1.632-1.61-1.814-1.61-1.814h11.245s1.59.182 1.59 1.814z"/></g><g><path fill="#e4e1e8" d="M119.677 42.008h9.293c.156 0 .282.126.282.282a.283.283 0 0 1-.282.28h-9.293a.279.279 0 0 1-.279-.28.279.279 0 0 1 .279-.282z"/></g><g><path fill="#e4e1e8" d="M119.677 45.09h9.293c.156 0 .282.126.282.282a.283.283 0 0 1-.282.279h-9.293a.279.279 0 0 1-.279-.28.279.279 0 0 1 .279-.282z"/></g><g><path fill="#e4e1e8" d="M119.677 51.527h9.293a.279.279 0 0 1 .282.28.283.283 0 0 1-.282.278h-9.293a.279.279 0 0 1-.279-.279.275.275 0 0 1 .279-.279z"/></g><g><path fill="#aeabba" d="M107.44 41.781h9.293a.283.283 0 0 1 .279.283.283.283 0 0 1-.279.279h-9.292a.283.283 0 0 1-.28-.28c0-.154.125-.28.28-.282z"/></g><g><path fill="#aeabba" d="M107.44 48.725h9.293a.282.282 0 0 1 .279.278.283.283 0 0 1-.279.28h-9.292a.283.283 0 0 1-.28-.28.282.282 0 0 1 .28-.278z"/></g><g><path fill="#aeabba" d="M107.44 53.163h9.293a.282.282 0 0 1 .279.282.283.283 0 0 1-.279.279h-9.292a.283.283 0 0 1-.28-.279c0-.154.125-.28.28-.282z"/></g></g></g></svg>