<svg xmlns="http://www.w3.org/2000/svg" width="2400.066" height="2398.28" viewBox="0 0 2400.066 2398.28">
  <g id="logo" transform="translate(0 -0.75)">
    <path id="Path" d="M710,2395c-8-2-49-9-90-15-123-20-278-75-375-135-22-13-47-27-55-31-22-11-114-79-143-107-24-22-26-31-36-195-6-94-11-205-11-247v-75H43c23-1,103-5,177-10l135-9,50,48c98,92,166,132,284,163,161,42,331,13,486-85,11-6,40-31,65-54,25-24,50-43,55-43,6,0,23,28,39,63,17,34,47,98,68,142,21,43,38,84,38,90,0,5,7,18,15,29,13,18,16,17,67-7,64-31,194-92,302-142,80-37,101-39,75-8-9,10-21,29-27,43-49,98-221,291-310,347-15,9-39,27-54,39-39,32-201,112-283,141-112,39-265,63-389,62C775,2398,718,2396,710,2395Z" transform="translate(360)" fill="#579fec" fill-rule="evenodd"/>
    <path id="Path-2" data-name="Path" d="M766,1667c-16-34-46-100-68-147l-40-85,21-81c45-176,14-355-88-504-34-49-131-142-166-160-17-8-37-20-45-26-26-21-162-64-202-64-24,0-38-5-38-13,0-7,47-59,105-117S350,362,350,358c0-8-146-158-153-158S0,10,0,3C0,0,73,0,163,3,326,8,396,21,535,73c207,78,479,298,569,462,9,17,26,46,38,65,30,49,78,148,78,161,0,6,9,31,19,57,64,158,80,435,37,617l-21,90-50,25c-48,24-108,52-298,139-49,23-94,41-100,41C800,1730,782,1702,766,1667Z" transform="translate(1100)" fill="#b8de5a" fill-rule="evenodd"/>
    <path id="Path-3" data-name="Path" d="M184,1853c-18-27-30-47-51-88-5-11-17-34-26-50-28-54-57-138-82-237C3,1392,0,1361,0,1193c0-176,2-194,29-293,36-129,50-167,94-251C246,414,447,217,670,112,775,63,833,42,871,38c34-3,44,4,201,158l166,162L1106,494c-72,75-147,145-166,155-19,11-50,27-67,36-18,10-33,21-33,26s-5,9-10,9c-14,0-110,96-110,109,0,5-4,11-9,13-16,6-61,88-87,160-23,64-26,88-27,198,0,97,4,135,18,168,10,24,15,46,11,49-8,9-200,21-330,22l-99,1,7,198c3,108,9,207,12,220C225,1889,206,1886,184,1853Z" fill="#ed6a67" fill-rule="evenodd"/>
  </g>
</svg>
