<svg xmlns="http://www.w3.org/2000/svg" width="10120" height="2398.28" viewBox="0 0 10120 2398.28">
  <g id="Page-1" transform="translate(0 -0.75)">
    <g id="translatege-logo-large">
      <g id="text">
        <path id="Shape" d="M8675,1836c-59-20-107-43-134-64-28-22-24-41,18-92,27-32,30-34,48-18,35,31,119,67,182,78,114,20,237-17,298-89,33-38,70-120,76-168l5-41-47,35c-87,68-144,87-251,88-84,0-101-3-146-27-63-33-114-90-137-155-43-121,0-294,100-398,152-159,391-182,525-51,40,39,39,39,53-31l7-33h65c62,0,65,1,60,23-8,35-33,170-56,302-49,281-72,383-96,434-35,71-119,154-192,188-53,24-70,27-198,30C8756,1849,8703,1846,8675,1836Zm357-411c96-45,158-117,178-207,24-104-18-189-115-234-152-71-347,38-385,215-10,46-10,70-1,108,11,43,49,103,66,103,4,0,18,9,32,20C8846,1461,8962,1458,9032,1425Z" fill="#787d88"/>
        <path id="Path" d="M3308,1619c-59-30-73-60-72-149,0-69,9-126,60-390,20-105,21-100-37-100h-51l6-37c13-73,13-73,66-73,55,0,54,2,70-106,21-138,12-125,83-122,38,2,61,7,60,14-1,6-7,47-12,90-6,43-14,89-17,102-6,22-6,22,111,22h118l-7,31c-3,17-6,42-6,55,0,24,0,24-118,24H3444l-21,108c-40,205-63,337-63,363,0,14,10,35,23,47,33,32,77,37,137,17,28-9,53-15,55-14,2,2-1,27-7,56-10,47-14,53-49,67C3463,1647,3355,1644,3308,1619Z" fill="#787d88" fill-rule="evenodd"/>
        <path id="Shape-2" data-name="Shape" d="M4160,1613c-64-33-109-90-117-149-7-57,30-160,75-207,85-88,229-121,410-95,118,17,118,17,110-57-14-118-133-162-308-114-124,35-116,35-124-1-11-57-7-68,27-84,94-44,283-60,380-31,61,18,98,48,126,101,27,51,28,163,2,287-11,51-30,152-43,225l-23,132H4560v-68l-81,42c-75,38-88,41-173,44C4223,1641,4210,1639,4160,1613Zm300-106c55-26,127-101,135-139,3-15,8-41,11-57,5-29,3-30-47-45-73-22-196-21-256,2-61,23-95,55-116,110-15,37-15,47-3,76,7,18,27,42,43,54C4276,1543,4385,1543,4460,1507Z" fill="#787d88"/>
        <path id="Path-2" data-name="Path" d="M5670,1621c-64-20-146-66-153-85-6-16,51-96,69-96,6,0,23,9,37,20,128,101,304,92,358-17,33-68,6-98-130-143-144-48-200-83-219-139-16-44-15-62,4-127,20-71,84-134,164-164,103-38,283-14,361,49,22,17,22,18,3,47-34,52-55,68-73,56-65-46-183-74-244-58-31,7-83,55-91,83-18,59,15,87,169,142,146,53,186,89,193,176,8,103-68,208-186,254C5865,1646,5749,1646,5670,1621Z" fill="#787d88" fill-rule="evenodd"/>
        <path id="Shape-3" data-name="Shape" d="M6535,1616c-67-33-88-53-108-104-22-55-21-85,4-159,52-154,226-226,467-191l102,14v-60c-1-65-17-94-70-125-43-25-137-25-225-1-133,36-122,36-130-2-3-18-8-40-11-49-10-35,154-79,291-78,121,1,177,21,229,83l40,47v102c0,63-8,140-21,202-12,55-26,134-32,176-7,42-16,93-22,113l-10,36H6918l7-42c7-39,6-41-9-25-9,9-47,31-84,49-58,28-79,33-157,36C6596,1640,6579,1638,6535,1616Zm295-109c57-28,118-92,130-137,24-93,25-88-17-100-21-7-78-14-128-17-75-4-99-1-146,16-30,12-67,33-81,49-54,57-54,146,0,187C6639,1543,6754,1544,6830,1507Z" fill="#787d88"/>
        <path id="Path-3" data-name="Path" d="M7292,1619c-40-20-60-47-77-107-7-23,10-141,45-322,10-52,22-121,25-152l6-58h-45c-45,0-46-1-46-32,0-70,7-78,66-78,52,0,54-1,54-27,0-24,6-54,35-180,5-21,11-23,65-23,59,0,60,1,60,28,0,15-9,64-20,110s-20,85-20,88c0,2,54,4,120,4s120,2,120,5c0,2-5,27-11,55l-11,50H7423l-12,78c-7,42-21,118-31,167-10,50-22,127-25,171-7,75-6,83,14,103,37,37,71,38,174,4,13-4,17,0,17,20,0,63-11,85-51,101C7451,1647,7345,1645,7292,1619Z" fill="#787d88" fill-rule="evenodd"/>
        <path id="Shape-4" data-name="Shape" d="M7792,1618c-210-83-248-378-78-601,42-55,131-119,199-145,84-32,194-30,262,3,65,31,85,50,120,108,24,41,29,63,33,142,2,51,2,109-2,129l-7,36H7730v28c1,15,9,48,18,73,58,157,223,185,398,67,23-15,47-28,52-28,6,0,23,16,37,35l27,34-29,26c-43,38-122,81-182,99C7974,1647,7858,1644,7792,1618Zm413-480c-7-70-32-114-86-153-45-34-133-35-192-2-52,28-115,91-144,144-43,76-51,73,203,73h226Z" fill="#787d88"/>
        <path id="Shape-5" data-name="Shape" d="M9582,1617c-115-48-174-140-180-279-3-75,0-99,22-163,46-134,127-228,246-287,54-27,79-33,152-36,76-4,92-1,140,20,68,33,100,61,132,123,24,46,26,60,26,172v123H9517l7,46c21,156,168,234,323,171,34-14,78-38,98-53,41-31,54-28,89,20l20,27-29,25C9896,1633,9712,1671,9582,1617Zm418-462c0-75-44-151-107-184-36-19-121-13-170,11-73,36-152,127-167,191l-6,27h450Z" fill="#787d88"/>
        <path id="Path-4" data-name="Path" d="M3635,1573c6-51,34-210,66-378,10-55,21-120,24-145s13-75,21-112l16-68h121l-7,54c-3,30-9,62-13,72s17-5,47-34c67-65,146-104,224-110,58-5,59-4,53,19-3,13-9,43-13,66-7,45-8,46-97,58-26,4-58,16-71,26-13,11-28,19-33,19-11,0-93,85-93,96,0,4-6,15-14,23-19,21-66,157-66,191,0,14-9,66-20,116-11,49-20,104-20,122v32H3629Z" fill="#787d88" fill-rule="evenodd"/>
        <path id="Path-5" data-name="Path" d="M4795,1573c6-51,34-210,66-378,10-55,21-120,24-145s13-75,21-112l16-68h121l-5,45-6,45,43-34c63-52,132-76,218-76,149,1,227,70,238,210,6,64-8,157-68,478l-16,82h-64c-44,0-63-4-63-12,0-7,9-50,20-96s20-96,20-111,9-67,20-117c40-179,22-262-64-303-56-28-99-26-165,4-104,49-141,106-171,265-12,63-30,159-41,213-10,54-19,111-19,127v30H4789Z" fill="#787d88" fill-rule="evenodd"/>
        <path id="Path-6" data-name="Path" d="M6174,1598c6-23,11-51,47-263,11-66,29-165,39-220,41-220,53-292,60-345,4-30,15-90,25-132l17-78h59c58,0,59,1,59,28,0,15-9,70-19,122-11,52-29,151-41,220-32,188-60,344-80,455-10,55-21,124-25,153-9,82-9,82-82,82C6170,1620,6168,1619,6174,1598Z" fill="#787d88" fill-rule="evenodd"/>
        <path id="Path-7" data-name="Path" d="M8305,1603c3-10,9-46,12-80l6-63h80c77,0,79,1,74,23-3,12-11,48-17,80l-11,57h-76C8306,1620,8299,1618,8305,1603Z" fill="#787d88" fill-rule="evenodd"/>
      </g>
      <g id="logo">
        <path id="Path-8" data-name="Path" d="M710,2395c-8-2-49-9-90-15-123-20-278-75-375-135-22-13-47-27-55-31-22-11-114-79-143-107-24-22-26-31-36-195-6-94-11-205-11-247v-75H43c23-1,103-5,177-10l135-9,50,48c98,92,166,132,284,163,161,42,331,13,486-85,11-6,40-31,65-54,25-24,50-43,55-43,6,0,23,28,39,63,17,34,47,98,68,142,21,43,38,84,38,90,0,5,7,18,15,29,13,18,16,17,67-7,64-31,194-92,302-142,80-37,101-39,75-8-9,10-21,29-27,43-49,98-221,291-310,347-15,9-39,27-54,39-39,32-201,112-283,141-112,39-265,63-389,62C775,2398,718,2396,710,2395Z" transform="translate(360)" fill="#579fec" fill-rule="evenodd"/>
        <path id="Path-9" data-name="Path" d="M766,1667c-16-34-46-100-68-147l-40-85,21-81c45-176,14-355-88-504-34-49-131-142-166-160-17-8-37-20-45-26-26-21-162-64-202-64-24,0-38-5-38-13,0-7,47-59,105-117S350,362,350,358c0-8-146-158-153-158S0,10,0,3C0,0,73,0,163,3,326,8,396,21,535,73c207,78,479,298,569,462,9,17,26,46,38,65,30,49,78,148,78,161,0,6,9,31,19,57,64,158,80,435,37,617l-21,90-50,25c-48,24-108,52-298,139-49,23-94,41-100,41C800,1730,782,1702,766,1667Z" transform="translate(1100)" fill="#b8de5a" fill-rule="evenodd"/>
        <path id="Path-10" data-name="Path" d="M184,1853c-18-27-30-47-51-88-5-11-17-34-26-50-28-54-57-138-82-237C3,1392,0,1361,0,1193c0-176,2-194,29-293,36-129,50-167,94-251C246,414,447,217,670,112,775,63,833,42,871,38c34-3,44,4,201,158l166,162L1106,494c-72,75-147,145-166,155-19,11-50,27-67,36-18,10-33,21-33,26s-5,9-10,9c-14,0-110,96-110,109,0,5-4,11-9,13-16,6-61,88-87,160-23,64-26,88-27,198,0,97,4,135,18,168,10,24,15,46,11,49-8,9-200,21-330,22l-99,1,7,198c3,108,9,207,12,220C225,1889,206,1886,184,1853Z" fill="#ed6a67" fill-rule="evenodd"/>
      </g>
    </g>
  </g>
</svg>
