<svg xmlns="http://www.w3.org/2000/svg" width="21" height="18" viewBox="0 0 21 18"><g><g><g><g><path fill="#121b23" d="M8.885 1.304a.776.776 0 0 0-.568.24L4.114 5.76H.808A.776.776 0 0 0 .24 6a.78.78 0 0 0-.24.57v4.861c0 .22.08.41.24.57.16.16.35.24.568.24h3.306l4.203 4.216c.16.16.349.24.568.24.218 0 .408-.08.568-.24a.78.78 0 0 0 .24-.57V2.114a.78.78 0 0 0-.24-.57.776.776 0 0 0-.568-.24z"/></g><g><path fill="#121b23" d="M14.002 10.791a3.268 3.268 0 0 0 0-3.59 2.902 2.902 0 0 0-1.42-1.176.702.702 0 0 0-.315-.064.786.786 0 0 0-.568.235.775.775 0 0 0-.24.576c0 .177.05.327.152.449.1.122.223.228.366.316.143.09.286.186.429.292.143.105.265.255.366.449.1.194.151.435.151.722s-.05.527-.151.721c-.101.195-.223.344-.366.45a6.52 6.52 0 0 1-.43.291 1.475 1.475 0 0 0-.365.316.685.685 0 0 0-.152.45c0 .228.08.42.24.576.16.156.35.234.568.234a.705.705 0 0 0 .315-.063 2.986 2.986 0 0 0 1.42-1.184z"/></g><g><path fill="#121b23" d="M16.697 12.576A6.4 6.4 0 0 0 17.77 9a6.404 6.404 0 0 0-1.073-3.577 6.232 6.232 0 0 0-2.84-2.386.907.907 0 0 0-.328-.063.776.776 0 0 0-.568.24.78.78 0 0 0-.24.57c0 .33.164.578.493.747.47.245.79.43.959.557a4.775 4.775 0 0 1 1.457 1.715c.35.688.524 1.42.524 2.197 0 .776-.175 1.508-.524 2.196a4.775 4.775 0 0 1-1.457 1.715c-.169.127-.488.312-.96.557-.328.169-.492.418-.492.747 0 .22.08.41.24.57.16.16.353.24.58.24a.881.881 0 0 0 .316-.063 6.232 6.232 0 0 0 2.84-2.386z"/></g><g><path fill="#121b23" d="M19.397 3.652A9.537 9.537 0 0 0 15.132.063.907.907 0 0 0 14.804 0a.775.775 0 0 0-.568.24.78.78 0 0 0-.24.57c0 .304.164.553.492.747.06.034.153.078.284.133.13.055.225.099.284.133a9.6 9.6 0 0 1 1.035.645 8.065 8.065 0 0 1 2.423 2.874c.58 1.147.87 2.367.87 3.658 0 1.292-.29 2.51-.87 3.658a8.061 8.061 0 0 1-2.423 2.874c-.303.22-.648.434-1.035.645-.06.034-.154.078-.284.133-.13.055-.225.099-.284.133-.328.194-.492.443-.492.747 0 .22.08.41.24.57.16.16.349.24.568.24.109 0 .218-.021.328-.063a9.534 9.534 0 0 0 4.265-3.59A9.533 9.533 0 0 0 21 9a9.53 9.53 0 0 0-1.603-5.348z"/></g></g></g></g></svg>