<svg xmlns="http://www.w3.org/2000/svg" width="19" height="24" viewBox="0 0 19 24"><g><g><g><g><g><path fill="#569fec" d="M18.005 21.023a1.964 1.964 0 0 1-1.962 1.985H2.957c-1.099 0-1.963-.888-1.963-1.959V2.925c0-1.097.89-1.959 1.963-1.959h10.547V5.51c0 .261.21.497.497.497h4.004zM14.5 1.776l2.904 3.264H14.5zm4.475 3.552zm-.053-.053c-.026-.026-.026-.052-.052-.078L14.368.157c-.027-.026-.079-.053-.105-.079-.026 0-.026-.026-.052-.026A.494.494 0 0 0 14 0H2.957A2.968 2.968 0 0 0 0 2.951v18.098A2.968 2.968 0 0 0 2.957 24h13.086A2.968 2.968 0 0 0 19 21.049V5.51c0-.052-.026-.13-.026-.182-.026 0-.026-.027-.053-.053z"/></g><g><path fill="#569fec" d="M3.533 6.007h4.37a.496.496 0 0 0 .498-.497.48.48 0 0 0-.498-.496h-4.37a.496.496 0 1 0 0 .993z"/></g><g><path fill="#569fec" d="M7.903 17.993h-4.37a.496.496 0 1 0 0 .993h4.37a.496.496 0 0 0 .498-.496.514.514 0 0 0-.498-.497z"/></g><g><path fill="#569fec" d="M3.036 8.8c0 .262.21.497.497.497h11.672a.496.496 0 1 0 0-.992H3.533a.496.496 0 0 0-.497.496z"/></g><g><path fill="#569fec" d="M15.205 10.76H3.533a.496.496 0 1 0 0 .992h11.672a.496.496 0 0 0 .497-.496.48.48 0 0 0-.497-.496z"/></g><g><path fill="#569fec" d="M15.205 13.188H3.533a.496.496 0 1 0 0 .993h11.672a.496.496 0 0 0 .497-.497.48.48 0 0 0-.497-.496z"/></g><g><path fill="#569fec" d="M15.205 15.617H3.533a.496.496 0 1 0 0 .992h11.672a.496.496 0 1 0 0-.992z"/></g></g></g></g></g></svg>