<svg xmlns="http://www.w3.org/2000/svg" width="18" height="18" viewBox="0 0 18 18"><g><g><g><path fill="#787d88" d="M17.484 10.942a.473.473 0 0 0-.472.475v4.211a1.42 1.42 0 0 1-1.415 1.423H2.359a1.42 1.42 0 0 1-1.415-1.423V3.268a1.42 1.42 0 0 1 1.415-1.423h4.189a.473.473 0 1 0 0-.949h-4.19A2.368 2.368 0 0 0 0 3.268v12.36A2.368 2.368 0 0 0 2.359 18h13.238a2.368 2.368 0 0 0 2.358-2.372v-4.211a.473.473 0 0 0-.471-.475z"/></g><g><path fill="#787d88" d="M7.377 8.447l6.889-6.926 2.221 2.233L9.6 10.68z"/></g><g><path fill="#787d88" d="M6.253 11.81l2.455-.684-1.775-1.784z"/></g><g><path fill="#787d88" d="M17.101.347a1.176 1.176 0 0 0-1.668 0l-.5.503 2.222 2.233.5-.503c.46-.463.46-1.213 0-1.677z"/></g></g></g></svg>