<svg xmlns="http://www.w3.org/2000/svg" width="4.86" height="11" viewBox="0 0 4.86 11">
  <g id="info" transform="translate(-31.139)">
    <path id="Path_463"  d="M35.854,9.813l-.154.628q-.692.273-1.1.416a2.911,2.911,0,0,1-.957.143,1.911,1.911,0,0,1-1.3-.408,1.322,1.322,0,0,1-.465-1.037,3.67,3.67,0,0,1,.035-.5q.035-.255.112-.576l.576-2.04q.077-.293.13-.555a2.413,2.413,0,0,0,.052-.478.739.739,0,0,0-.161-.545A.911.911,0,0,0,32,4.707a1.615,1.615,0,0,0-.458.07c-.157.046-.291.091-.4.133l.154-.629q.566-.231,1.083-.395a3.24,3.24,0,0,1,.98-.164,1.864,1.864,0,0,1,1.283.4,1.334,1.334,0,0,1,.451,1.044c0,.089-.01.245-.031.468a3.13,3.13,0,0,1-.115.615l-.574,2.031a5.4,5.4,0,0,0-.126.56,2.88,2.88,0,0,0-.056.475.684.684,0,0,0,.181.552,1.02,1.02,0,0,0,.628.147,1.812,1.812,0,0,0,.475-.073A2.654,2.654,0,0,0,35.854,9.813ZM36,1.285a1.189,1.189,0,0,1-.4.9,1.366,1.366,0,0,1-.966.374,1.382,1.382,0,0,1-.971-.374,1.186,1.186,0,0,1-.405-.9A1.2,1.2,0,0,1,33.66.377a1.434,1.434,0,0,1,1.938,0A1.2,1.2,0,0,1,36,1.285Z" fill="#121b23"/>
  </g>
</svg>
