<svg xmlns="http://www.w3.org/2000/svg" width="19" height="24" viewBox="0 0 19 24"><g><g><g><g><g><path fill="#787d88" d="M18.005 21.023a1.964 1.964 0 0 1-1.962 1.985H2.957c-1.099 0-1.963-.888-1.963-1.959V2.925c0-1.097.89-1.959 1.963-1.959h10.547V5.51c0 .261.21.497.497.497h4.004zM14.5 1.776l2.904 3.264H14.5zm4.475 3.552zm-.053-.053c-.026-.026-.026-.052-.052-.078L14.368.157c-.027-.026-.079-.053-.105-.079-.026 0-.026-.026-.052-.026A.494.494 0 0 0 14 0H2.957A2.968 2.968 0 0 0 0 2.951v18.098A2.968 2.968 0 0 0 2.957 24h13.086A2.968 2.968 0 0 0 19 21.049V5.51c0-.052-.026-.13-.026-.182-.026 0-.026-.027-.053-.053z"/></g><g><g><path fill="#787d88" d="M4.352 18h6.375a.352.352 0 0 0 .351-.352v-.375a.703.703 0 0 0-.703-.703v-.42a1.01 1.01 0 0 0-1.01-1.01H5.713a1.01 1.01 0 0 0-1.009 1.01v.42a.703.703 0 0 0-.703.703v.375c0 .195.157.352.352.352z"/></g><g><path fill="#787d88" d="M8.4 13.742a.703.703 0 1 0 1.123-.846l-2.116-2.808a.703.703 0 1 0-1.123.847z"/></g><g><path fill="#787d88" d="M13.454 9.934a.703.703 0 0 0 1.123-.846L12.46 6.28a.703.703 0 1 0-1.123.846z"/></g><g><path fill="#787d88" d="M11.912 11.977c.52-.392.91-.878 1.153-1.39L10.603 7.32a3.813 3.813 0 0 0-1.654.726c-.52.391-.91.878-1.153 1.39l2.462 3.267a3.813 3.813 0 0 0 1.654-.726z"/></g><g><path fill="#787d88" d="M12.86 12.068a4.73 4.73 0 0 1-.525.47 4.75 4.75 0 0 1-.597.376l.458.609 1.123-.846z"/></g><g><path fill="#787d88" d="M13.743 13.238l-1.124.846 2.116 2.808a.703.703 0 0 0 1.123-.846z"/></g></g></g></g></g></g></svg>