<svg xmlns="http://www.w3.org/2000/svg" width="19" height="24" viewBox="0 0 19 24"><g><g><g><g><g><path fill="#787d88" d="M18.005 21.023a1.964 1.964 0 0 1-1.962 1.985H2.957c-1.099 0-1.963-.888-1.963-1.959V2.925c0-1.097.89-1.959 1.963-1.959h10.547V5.51c0 .261.21.497.497.497h4.004zM14.5 1.776l2.904 3.264H14.5zm4.475 3.552zm-.053-.053c-.026-.026-.026-.052-.052-.078L14.368.157c-.027-.026-.079-.053-.105-.079-.026 0-.026-.026-.052-.026A.494.494 0 0 0 14 0H2.957A2.968 2.968 0 0 0 0 2.951v18.098A2.968 2.968 0 0 0 2.957 24h13.086A2.968 2.968 0 0 0 19 21.049V5.51c0-.052-.026-.13-.026-.182-.026 0-.026-.027-.053-.053z"/></g><g><path fill="#787d88" d="M12.36 12.733a.66.66 0 1 1 0-1.319.66.66 0 0 1 0 1.319zm1.654-.659c0-.912-.742-1.655-1.655-1.655s-1.655.743-1.655 1.655c0 .74.487 1.367 1.157 1.579v1.658c0 .933-.76 1.692-1.693 1.692s-1.692-.76-1.692-1.692v-3.398a2.982 2.982 0 0 0 2.479-2.935v-2.48A.498.498 0 0 0 10.457 6h-1.24a.498.498 0 1 0 0 .997h.741v1.98c0 1.093-.888 1.981-1.98 1.981a1.983 1.983 0 0 1-1.981-1.98V6.997h.74a.498.498 0 0 0 0-.997H5.499A.498.498 0 0 0 5 6.498v2.48a2.982 2.982 0 0 0 2.48 2.935v3.398A2.692 2.692 0 0 0 10.167 18a2.692 2.692 0 0 0 2.69-2.69v-1.657a1.658 1.658 0 0 0 1.156-1.579z"/></g></g></g></g></g></svg>