<svg xmlns="http://www.w3.org/2000/svg" width="21" height="13" viewBox="0 0 21 13">
  <g id="menu" transform="translate(0 -96)">
    <g id="Group_68" data-name="Group 68" transform="translate(0 96)">
      <g id="Group_67" data-name="Group 67">
        <path id="Path_489" data-name="Path 489" d="M20.562,96H.438a.433.433,0,1,0,0,.867H20.562a.433.433,0,1,0,0-.867Z" transform="translate(0 -96)" fill="#121b23"/>
      </g>
    </g>
    <g id="Group_70" data-name="Group 70" transform="translate(0 102.067)">
      <g id="Group_69" data-name="Group 69">
        <path id="Path_490" data-name="Path 490" d="M20.562,245.333H.438a.433.433,0,1,0,0,.867H20.562a.433.433,0,1,0,0-.867Z" transform="translate(0 -245.333)" fill="#121b23"/>
      </g>
    </g>
    <g id="Group_72" data-name="Group 72" transform="translate(0 108.133)">
      <g id="Group_71" data-name="Group 71">
        <path id="Path_491" data-name="Path 491" d="M20.562,394.667H.438a.433.433,0,1,0,0,.867H20.562a.433.433,0,1,0,0-.867Z" transform="translate(0 -394.667)" fill="#121b23"/>
      </g>
    </g>
  </g>
</svg>
