<svg xmlns="http://www.w3.org/2000/svg" width="19" height="24" viewBox="0 0 19 24"><g><g><g><g><g><path fill="#787d88" d="M18.005 21.023a1.964 1.964 0 0 1-1.962 1.985H2.957c-1.099 0-1.963-.888-1.963-1.959V2.925c0-1.097.89-1.959 1.963-1.959h10.547V5.51c0 .261.21.497.497.497h4.004zM14.5 1.776l2.904 3.264H14.5zm4.475 3.552zm-.053-.053c-.026-.026-.026-.052-.052-.078L14.368.157c-.027-.026-.079-.053-.105-.079-.026 0-.026-.026-.052-.026A.494.494 0 0 0 14 0H2.957A2.968 2.968 0 0 0 0 2.951v18.098A2.968 2.968 0 0 0 2.957 24h13.086A2.968 2.968 0 0 0 19 21.049V5.51c0-.052-.026-.13-.026-.182-.026 0-.026-.027-.053-.053z"/></g><g><g><path fill="#787d88" d="M9.837 9.977h-.703v-.703h.703zM8.43 7.164h.703v.739a1.76 1.76 0 0 0-1.406 1.722c0 .305.084.587.221.837L6.12 15.03H4.914v.703h.915l-.126.307c-.266.73.113 1.537.84 1.802l2.576-6.499a1.755 1.755 0 0 0 .733 0l2.574 6.5a1.406 1.406 0 0 0 .846-1.79l-.132-.32h.915v-.703H12.85l-1.829-4.568c.137-.25.222-.532.222-.837a1.76 1.76 0 0 0-1.406-1.722v-.739h.703v-2.11H8.43z"/></g><g><path fill="#787d88" d="M9.133 14.327v.703H8.44l-.284.703h.978v.703h.703v-.703h.979l-.284-.703h-.695v-.703z"/></g></g></g></g></g></g></svg>