<svg xmlns="http://www.w3.org/2000/svg" width="32" height="40" viewBox="0 0 32 40"><g><g><g><path fill="#787d88" d="M26.435 38.068H5.256c-1.806 0-3.323-1.498-3.323-3.315V5.246c0-1.806 1.507-3.314 3.323-3.314h14.648V8.04a4.227 4.227 0 0 0 4.241 4.232h5.614v22.482c0 1.817-1.508 3.315-3.324 3.315zm-4.6-34.657l6.6 6.927h-4.29a2.301 2.301 0 0 1-2.31-2.3zm-.28-3.102A.968.968 0 0 0 20.86 0H5.256C2.377 0 0 2.367 0 5.246v29.507C0 37.633 2.377 40 5.256 40h21.179c2.88 0 5.256-2.367 5.256-5.247v-23.43a1.04 1.04 0 0 0-.28-.676z"/></g><g><path fill="#787d88" d="M23.797 31.401H7.894a.969.969 0 0 0-.966.966.97.97 0 0 0 .966.966h15.913a.97.97 0 0 0 .966-.966.971.971 0 0 0-.976-.966z"/></g><g><path fill="#787d88" d="M9.662 17.884a.969.969 0 0 0 .966-.966v-1.17h4.251v10.05h-1.806a.969.969 0 0 0-.966.965c0 .532.434.967.966.967h5.555a.969.969 0 0 0 .966-.967.969.969 0 0 0-.966-.966h-1.816V15.75h4.251v1.17c0 .53.435.965.966.965a.97.97 0 0 0 .967-.966v-2.164c0-.532-.455-.937-.986-.937H9.681c-.531 0-.985.405-.985.937v2.164c0 .531.435.966.966.966z"/></g></g></g></svg>